<svg xmlns="http://www.w3.org/2000/svg" xmlns:xlink="http://www.w3.org/1999/xlink" width="4946.667" height="4946.667" xmlns:v="https://vecta.io/nano"><defs><clipPath id="A"><path d="M19795.8 4958.5c927.1 199 2321.4 750 3496.5 2261l2804.6 125.3c891.8 57 1585.9 795.7 1584.8 1689.4-4.9 4028.2-65.5 14901.1-558.2 20794.4 175.7-129.9 348.1-264.5 517-404 6455-5329.6 5995.5-16096.2 1655.3-20599.1-572.7-594.2-1114.6-977.4-1542.8-1280.1-2672.2-1889.6-5604.9-2483.4-7957.2-2586.9m-1671.6 3.2l-16.6.8 14.6 2.7 2-3.5M9372.43 7627c-687.16 481.7-1354.46 1064.7-1966.95 1774.5-3025.71 3506.5-3373.79 8558.6-1994.89 12871.4 668.8-2068.4 1857.33-4236.6 3952.45-5811.6v-3006c0-154.9 178.42-264.4 336.11-275.3V9548c-157.51-13.9-336.11-152.3-336.11-307V7828.8c0-67.8 3.27-135.1 9.39-201.8"/></clipPath><linearGradient x1="0" y1="0" x2="1" y2="0" gradientTransform="matrix(-24716.1,30695.9,30695.9,24716.1,36003.9,-3343.4)" spreadMethod="pad" id="B" xlink:href="#Cj"><stop offset="0" stop-color="#dae3fe"/><stop offset="1" stop-color="#e9effd"/></linearGradient><clipPath id="C"><path d="M23292.3 7219.5c503.7 647.7 967.2 1472 1336.3 2520.5l502.6 50.2c652.9 71.8 1152 637.8 1169.3 1323 90.7 3573.4 335.8 14422.4 87 18673.5-39.7 678.2-557.8 1219.3-1207.3 1263.1-2083.9 140.4-6701.9 423.1-10108.2 423.1-985.7 0-1869.8-23.7-2561.8-81.3-578.8-48.2-1027.2-545.8-1036.1-1152l-82.5-8386.2c-353.9-123.5-680.3-312-963-550.4l-8.9 2602.6-1.2 6083.2 3 1323.5c1.9 669.4 513.2 1227.9 1180.1 1285.8 821.2 71.5 1834.2 100.8 2945.3 100.8 3891.7 0 8981.9-360.1 11206.6-533.5 663.4-51.6 1195.3-568.1 1265.8-1229.8l104.2-1107c492.7-5893.3 553.3-16766.2 558.2-20794.4 1.1-893.7-693-1632.4-1584.8-1689.4-831.9-53.2-1786.6-94.1-2804.6-125.3"/></clipPath><linearGradient x1="0" y1="0" x2="1" y2="0" gradientTransform="matrix(17195.6,376.659,376.659,-17195.6,10359.9,19775.6)" spreadMethod="pad" id="D" xlink:href="#Cj"><stop offset="0" stop-color="#09005d"/><stop offset="1" stop-color="#1a0f91"/></linearGradient><clipPath id="E"><path d="M24628.6 9740c78.2 222.2 152.1 454.1 221.4 696.9 437.1 183.5 743.8 634.9 756.3 1161.6 80.2 3356.8 295.9 13548.6 65.9 17542.4-36.6 637.1-509.6 1145.8-1102 1187.4-1909.4 134-6151.4 404.7-9262.1 404.7-881.9 0-1672.7-21.7-2293.8-74.5-527.9-44.9-936.5-512.1-944.1-1081.5l-68.1-7580.7c-210.3-26.1-414.5-74.6-610.5-142.9l82.5 8386.2c8.9 606.2 457.3 1103.8 1036.1 1152 692 57.6 1576.1 81.3 2561.8 81.3 3406.3 0 8024.3-282.7 10108.2-423.1 649.5-43.8 1167.6-584.9 1207.3-1263.1 248.8-4251.1 3.7-15100.1-87-18673.5-17.3-685.2-516.4-1251.2-1169.3-1323l-502.6-50.2"/></clipPath><linearGradient x1="0" y1="0" x2="1" y2="0" gradientTransform="matrix(36400.1,-50611.3,-50611.3,-36400.1,12320.9,29536.8)" spreadMethod="pad" id="F" xlink:href="#Cj"><stop offset="0" stop-color="#fe7062"/><stop offset="1" stop-color="#ff928e"/></linearGradient><clipPath id="G"><path d="M24850 10436.9c342 1199.5 568.2 2656 616.3 4424.4 1.6 58.4-45.5 94.3-93 94.3-30 0-60.2-14.4-78.3-46.5-452.3-802.9-1704.3-2871-3079.2-3794.9-278.5-187.1-552.3-395.1-817.1-619.6-46.2 817.6-194 1748.6-475.9 2808.5-9 33.8-37.4 50.6-65.8 50.6-29.2 0-58.3-17.7-66.3-52.6-98-426.4-319.9-1289.4-672.3-2104.3v1982.3h73.1c163.2 0 229.4 112.9 229.4 276.2v5601.3c0 677-217.7 1305.2-589.3 1807.4 1643.1 365.7 2871.3 1832.1 2871.3 3585.4 0 2028.6-1644.5 3673.2-3673.2 3673.2-2028.6 0-3673.2-1644.6-3673.2-3673.2 0-932.1 347.2-1783.1 919.3-2430.8h-3912.4c-121.9 0-242.6-7.6-361.3-22.3l68.1 7580.7c7.6 569.4 416.2 1036.6 944.1 1081.5 621.1 52.8 1411.9 74.5 2293.8 74.5 3110.7 0 7352.7-270.7 9262.1-404.7 592.4-41.6 1065.4-550.3 1102-1187.4 230-3993.8 14.3-14185.6-65.9-17542.4-12.5-526.7-319.2-978.1-756.3-1161.6"/></clipPath><linearGradient x1="0" y1="0" x2="1" y2="0" gradientTransform="matrix(36400.1,-50611.3,-50611.3,-36400.1,12320.9,29536.8)" spreadMethod="pad" id="H" xlink:href="#Cj"><stop offset="0" stop-color="#fea198"/><stop offset="1" stop-color="#ffb7b5"/></linearGradient><clipPath id="I"><path d="M19831.6 20864c-518.1 699.9-1335.2 1154.6-2278.8 1154.6h-1277c-572.1 647.7-919.3 1498.7-919.3 2430.8 0 2028.6 1644.6 3673.2 3673.2 3673.2 2028.7 0 3673.2-1644.6 3673.2-3673.2 0-1753.3-1228.2-3219.7-2871.3-3585.4"/></clipPath><linearGradient x1="0" y1="0" x2="1" y2="0" gradientTransform="matrix(36400.1,-50611.3,-50611.3,-36400.1,12320.9,29536.8)" spreadMethod="pad" id="J" xlink:href="#Cj"><stop offset="0" stop-color="#ffeae8"/><stop offset="1" stop-color="#ffefef"/></linearGradient><clipPath id="K"><path d="M20154.4 25837.4c0-622-504.2-1293.5-1126.2-1293.5s-1126.2 671.5-1126.2 1293.5c0 621.9 504.2 1063.2 1126.2 1063.2s1126.2-441.3 1126.2-1063.2z"/></clipPath><linearGradient x1="0" y1="0" x2="1" y2="0" gradientTransform="matrix(-8680.14,-12114.1,-12114.1,8680.14,19754.3,26808.6)" spreadMethod="pad" id="L" xlink:href="#Cj"><stop offset="0" stop-color="#fe7062"/><stop offset="1" stop-color="#ff928e"/></linearGradient><clipPath id="M"><path d="M17630.6 22149.3h2749.2c289.4 0 545.6 187.1 633.8 462.7l147.9 462.4c108.3 338.5-67.8 705-401.6 827.1-1118.8 409.1-2275.7 356.6-3460.8-37.8-332-110.4-516.2-465.6-424.6-803.2l113.9-420c78.6-289.9 341.8-491.2 642.2-491.2z"/></clipPath><linearGradient x1="0" y1="0" x2="1" y2="0" gradientTransform="matrix(-8680.13,-12114,-12114,8680.13,21012.6,25907)" spreadMethod="pad" id="N" xlink:href="#Cj"><stop offset="0" stop-color="#fe7062"/><stop offset="1" stop-color="#ff928e"/></linearGradient><clipPath id="O"><path d="M9699.15 9548v3632a368.03 368.03 0 0 1 25.59-.9H20118.4v-1982.3c-199-460.3-439.7-905.3-723.2-1247.3-105.8-127.7-208.2-261.6-306.6-400.4H9724.62c-8.41 0-16.91-.4-25.47-1.1"/></clipPath><linearGradient x1="0" y1="0" x2="1" y2="0" gradientTransform="matrix(1514.2,12946.3,12946.3,-1514.2,13869.3,2359)" spreadMethod="pad" id="P" xlink:href="#Cj"><stop offset="0" stop-color="#09005d"/><stop offset="1" stop-color="#1a0f91"/></linearGradient><clipPath id="Q"><path d="M10505.8 12933.4c0 24.3-19.7 44-44 44h-416.1c-24.3 0-44.1-19.7-44.1-44v-416.1c0-24.4 19.8-44.1 44.1-44.1h416.1c24.3 0 44 19.7 44 44.1z"/></clipPath><linearGradient x1="0" y1="0" x2="1" y2="0" gradientTransform="matrix(-403.705,2766.12,2766.12,403.705,10502.9,11017.9)" spreadMethod="pad" id="R" xlink:href="#Cj"><stop offset="0" stop-color="#4f52ff"/><stop offset="1" stop-color="#4042e2"/></linearGradient><clipPath id="S"><path d="M11211.6 12933.4c0 24.3-19.7 44-44 44h-416.1c-24.3 0-44-19.7-44-44v-416.1c0-24.4 19.7-44.1 44-44.1h416.1c24.3 0 44 19.7 44 44.1z"/></clipPath><linearGradient x1="0" y1="0" x2="1" y2="0" gradientTransform="matrix(-403.705,2766.12,2766.12,403.705,11208.7,11017.9)" spreadMethod="pad" id="T" xlink:href="#Cj"><stop offset="0" stop-color="#4f52ff"/><stop offset="1" stop-color="#4042e2"/></linearGradient><clipPath id="U"><path d="M11951.1 12933.4c0 24.3-19.8 44-44.1 44h-416.1c-24.3 0-44-19.7-44-44v-416.1c0-24.4 19.7-44.1 44-44.1h416.1c24.3 0 44.1 19.7 44.1 44.1z"/></clipPath><linearGradient x1="0" y1="0" x2="1" y2="0" gradientTransform="matrix(-403.705,2766.12,2766.12,403.705,11948.2,11017.9)" spreadMethod="pad" id="V" xlink:href="#Cj"><stop offset="0" stop-color="#4f52ff"/><stop offset="1" stop-color="#4042e2"/></linearGradient><clipPath id="W"><path d="M12656.9 12933.4c0 24.3-19.7 44-44 44h-416.2c-24.3 0-44-19.7-44-44v-416.1c0-24.4 19.7-44.1 44-44.1h416.2c24.3 0 44 19.7 44 44.1z"/></clipPath><linearGradient x1="0" y1="0" x2="1" y2="0" gradientTransform="matrix(-403.705,2766.12,2766.12,403.705,12654,11017.9)" spreadMethod="pad" id="X" xlink:href="#Cj"><stop offset="0" stop-color="#4f52ff"/><stop offset="1" stop-color="#4042e2"/></linearGradient><clipPath id="Y"><path d="M13362.7 12933.4c0 24.3-19.7 44-44 44h-416.1c-24.3 0-44.1-19.7-44.1-44v-416.1c0-24.4 19.8-44.1 44.1-44.1h416.1c24.3 0 44 19.7 44 44.1z"/></clipPath><linearGradient x1="0" y1="0" x2="1" y2="0" gradientTransform="matrix(-403.705,2766.12,2766.12,403.705,13359.8,11017.9)" spreadMethod="pad" id="Z" xlink:href="#Cj"><stop offset="0" stop-color="#4f52ff"/><stop offset="1" stop-color="#4042e2"/></linearGradient><clipPath id="a"><path d="M14102.1 12933.4c0 24.3-19.7 44-44 44H13642c-24.3 0-44-19.7-44-44v-416.1c0-24.4 19.7-44.1 44-44.1h416.1c24.3 0 44 19.7 44 44.1z"/></clipPath><linearGradient x1="0" y1="0" x2="1" y2="0" gradientTransform="matrix(-403.705,2766.12,2766.12,403.705,14099.2,11017.9)" spreadMethod="pad" id="b" xlink:href="#Cj"><stop offset="0" stop-color="#4f52ff"/><stop offset="1" stop-color="#4042e2"/></linearGradient><clipPath id="c"><path d="M14808 12933.4c0 24.3-19.8 44-44.1 44h-416.1c-24.3 0-44-19.7-44-44v-416.1c0-24.4 19.7-44.1 44-44.1h416.1c24.3 0 44.1 19.7 44.1 44.1z"/></clipPath><linearGradient x1="0" y1="0" x2="1" y2="0" gradientTransform="matrix(-403.705,2766.12,2766.12,403.705,14805.1,11017.9)" spreadMethod="pad" id="d" xlink:href="#Cj"><stop offset="0" stop-color="#4f52ff"/><stop offset="1" stop-color="#4042e2"/></linearGradient><clipPath id="e"><path d="M15513.8 12933.4c0 24.3-19.7 44-44 44h-416.2c-24.3 0-44-19.7-44-44v-416.1c0-24.4 19.7-44.1 44-44.1h416.2c24.3 0 44 19.7 44 44.1z"/></clipPath><linearGradient x1="0" y1="0" x2="1" y2="0" gradientTransform="matrix(-403.705,2766.12,2766.12,403.705,15510.9,11017.9)" spreadMethod="pad" id="f" xlink:href="#Cj"><stop offset="0" stop-color="#4f52ff"/><stop offset="1" stop-color="#4042e2"/></linearGradient><clipPath id="g"><path d="M16253.2 12933.4c0 24.3-19.7 44-44 44h-416.1c-24.3 0-44.1-19.7-44.1-44v-416.1c0-24.4 19.8-44.1 44.1-44.1h416.1c24.3 0 44 19.7 44 44.1z"/></clipPath><linearGradient x1="0" y1="0" x2="1" y2="0" gradientTransform="matrix(-403.705,2766.12,2766.12,403.705,16250.3,11017.9)" spreadMethod="pad" id="h" xlink:href="#Cj"><stop offset="0" stop-color="#4f52ff"/><stop offset="1" stop-color="#4042e2"/></linearGradient><clipPath id="i"><path d="M16959 12933.4c0 24.3-19.7 44-44 44h-416.1c-24.3 0-44-19.7-44-44v-416.1c0-24.4 19.7-44.1 44-44.1h416.1c24.3 0 44 19.7 44 44.1z"/></clipPath><linearGradient x1="0" y1="0" x2="1" y2="0" gradientTransform="matrix(-403.705,2766.12,2766.12,403.705,16956.1,11017.9)" spreadMethod="pad" id="j" xlink:href="#Cj"><stop offset="0" stop-color="#4f52ff"/><stop offset="1" stop-color="#4042e2"/></linearGradient><clipPath id="k"><path d="M17664.9 12933.4c0 24.3-19.8 44-44.1 44h-416.1c-24.3 0-44-19.7-44-44v-416.1c0-24.4 19.7-44.1 44-44.1h416.1c24.3 0 44.1 19.7 44.1 44.1z"/></clipPath><linearGradient x1="0" y1="0" x2="1" y2="0" gradientTransform="matrix(-403.705,2766.12,2766.12,403.705,17662,11017.9)" spreadMethod="pad" id="l" xlink:href="#Cj"><stop offset="0" stop-color="#4f52ff"/><stop offset="1" stop-color="#4042e2"/></linearGradient><clipPath id="m"><path d="M18404.3 12933.4c0 24.3-19.7 44-44 44h-416.1c-24.4 0-44.1-19.7-44.1-44v-416.1c0-24.4 19.7-44.1 44.1-44.1h416.1c24.3 0 44 19.7 44 44.1z"/></clipPath><linearGradient x1="0" y1="0" x2="1" y2="0" gradientTransform="matrix(-403.705,2766.12,2766.12,403.705,18401.4,11017.9)" spreadMethod="pad" id="n" xlink:href="#Cj"><stop offset="0" stop-color="#4f52ff"/><stop offset="1" stop-color="#4042e2"/></linearGradient><clipPath id="o"><path d="M19110.1 12933.4c0 24.3-19.7 44-44 44H18650c-24.3 0-44.1-19.7-44.1-44v-416.1c0-24.4 19.8-44.1 44.1-44.1h416.1c24.3 0 44 19.7 44 44.1z"/></clipPath><linearGradient x1="0" y1="0" x2="1" y2="0" gradientTransform="matrix(-403.705,2766.12,2766.12,403.705,19107.2,11017.9)" spreadMethod="pad" id="p" xlink:href="#Cj"><stop offset="0" stop-color="#4f52ff"/><stop offset="1" stop-color="#4042e2"/></linearGradient><clipPath id="q"><path d="M19815.9 12933.4c0 24.3-19.7 44-44 44h-416.1c-24.3 0-44-19.7-44-44v-416.1c0-24.4 19.7-44.1 44-44.1h416.1c24.3 0 44 19.7 44 44.1z"/></clipPath><linearGradient x1="0" y1="0" x2="1" y2="0" gradientTransform="matrix(-403.705,2766.12,2766.12,403.705,19813,11017.9)" spreadMethod="pad" id="r" xlink:href="#Cj"><stop offset="0" stop-color="#4f52ff"/><stop offset="1" stop-color="#4042e2"/></linearGradient><clipPath id="s"><path d="M10505.8 12261.2c0 24.3-19.7 44-44 44h-416.1c-24.3 0-44.1-19.7-44.1-44v-416.1c0-24.4 19.8-44.1 44.1-44.1h416.1c24.3 0 44 19.7 44 44.1z"/></clipPath><linearGradient x1="0" y1="0" x2="1" y2="0" gradientTransform="matrix(-403.705,2766.12,2766.12,403.705,10502.9,10345.7)" spreadMethod="pad" id="t" xlink:href="#Cj"><stop offset="0" stop-color="#4f52ff"/><stop offset="1" stop-color="#4042e2"/></linearGradient><clipPath id="u"><path d="M11211.6 12261.2c0 24.3-19.7 44-44 44h-416.1c-24.3 0-44-19.7-44-44v-416.1c0-24.4 19.7-44.1 44-44.1h416.1c24.3 0 44 19.7 44 44.1z"/></clipPath><linearGradient x1="0" y1="0" x2="1" y2="0" gradientTransform="matrix(-403.705,2766.12,2766.12,403.705,11208.7,10345.7)" spreadMethod="pad" id="v" xlink:href="#Cj"><stop offset="0" stop-color="#4f52ff"/><stop offset="1" stop-color="#4042e2"/></linearGradient><clipPath id="w"><path d="M11951.1 12261.2c0 24.3-19.8 44-44.1 44h-416.1c-24.3 0-44-19.7-44-44v-416.1c0-24.4 19.7-44.1 44-44.1h416.1c24.3 0 44.1 19.7 44.1 44.1z"/></clipPath><linearGradient x1="0" y1="0" x2="1" y2="0" gradientTransform="matrix(-403.705,2766.12,2766.12,403.705,11948.2,10345.7)" spreadMethod="pad" id="x" xlink:href="#Cj"><stop offset="0" stop-color="#4f52ff"/><stop offset="1" stop-color="#4042e2"/></linearGradient><clipPath id="y"><path d="M12656.9 12261.2c0 24.3-19.7 44-44 44h-416.2c-24.3 0-44-19.7-44-44v-416.1c0-24.4 19.7-44.1 44-44.1h416.2c24.3 0 44 19.7 44 44.1z"/></clipPath><linearGradient x1="0" y1="0" x2="1" y2="0" gradientTransform="matrix(-403.705,2766.12,2766.12,403.705,12654,10345.7)" spreadMethod="pad" id="z" xlink:href="#Cj"><stop offset="0" stop-color="#4f52ff"/><stop offset="1" stop-color="#4042e2"/></linearGradient><clipPath id="AA"><path d="M13362.7 12261.2c0 24.3-19.7 44-44 44h-416.1c-24.3 0-44.1-19.7-44.1-44v-416.1c0-24.4 19.8-44.1 44.1-44.1h416.1c24.3 0 44 19.7 44 44.1z"/></clipPath><linearGradient x1="0" y1="0" x2="1" y2="0" gradientTransform="matrix(-403.705,2766.12,2766.12,403.705,13359.8,10345.7)" spreadMethod="pad" id="AB" xlink:href="#Cj"><stop offset="0" stop-color="#4f52ff"/><stop offset="1" stop-color="#4042e2"/></linearGradient><clipPath id="AC"><path d="M14102.1 12261.2c0 24.3-19.7 44-44 44H13642c-24.3 0-44-19.7-44-44v-416.1c0-24.4 19.7-44.1 44-44.1h416.1c24.3 0 44 19.7 44 44.1z"/></clipPath><linearGradient x1="0" y1="0" x2="1" y2="0" gradientTransform="matrix(-403.705,2766.12,2766.12,403.705,14099.2,10345.7)" spreadMethod="pad" id="AD" xlink:href="#Cj"><stop offset="0" stop-color="#4f52ff"/><stop offset="1" stop-color="#4042e2"/></linearGradient><clipPath id="AE"><path d="M14808 12261.2c0 24.3-19.8 44-44.1 44h-416.1c-24.3 0-44-19.7-44-44v-416.1c0-24.4 19.7-44.1 44-44.1h416.1c24.3 0 44.1 19.7 44.1 44.1z"/></clipPath><linearGradient x1="0" y1="0" x2="1" y2="0" gradientTransform="matrix(-403.705,2766.12,2766.12,403.705,14805.1,10345.7)" spreadMethod="pad" id="AF" xlink:href="#Cj"><stop offset="0" stop-color="#4f52ff"/><stop offset="1" stop-color="#4042e2"/></linearGradient><clipPath id="AG"><path d="M15513.8 12261.2c0 24.3-19.7 44-44 44h-416.2c-24.3 0-44-19.7-44-44v-416.1c0-24.4 19.7-44.1 44-44.1h416.2c24.3 0 44 19.7 44 44.1z"/></clipPath><linearGradient x1="0" y1="0" x2="1" y2="0" gradientTransform="matrix(-403.705,2766.12,2766.12,403.705,15510.9,10345.7)" spreadMethod="pad" id="AH" xlink:href="#Cj"><stop offset="0" stop-color="#4f52ff"/><stop offset="1" stop-color="#4042e2"/></linearGradient><clipPath id="AI"><path d="M16253.2 12261.2c0 24.3-19.7 44-44 44h-416.1c-24.3 0-44.1-19.7-44.1-44v-416.1c0-24.4 19.8-44.1 44.1-44.1h416.1c24.3 0 44 19.7 44 44.1z"/></clipPath><linearGradient x1="0" y1="0" x2="1" y2="0" gradientTransform="matrix(-403.705,2766.12,2766.12,403.705,16250.3,10345.7)" spreadMethod="pad" id="AJ" xlink:href="#Cj"><stop offset="0" stop-color="#4f52ff"/><stop offset="1" stop-color="#4042e2"/></linearGradient><clipPath id="AK"><path d="M16959 12261.2c0 24.3-19.7 44-44 44h-416.1c-24.3 0-44-19.7-44-44v-416.1c0-24.4 19.7-44.1 44-44.1h416.1c24.3 0 44 19.7 44 44.1z"/></clipPath><linearGradient x1="0" y1="0" x2="1" y2="0" gradientTransform="matrix(-403.705,2766.12,2766.12,403.705,16956.1,10345.7)" spreadMethod="pad" id="AL" xlink:href="#Cj"><stop offset="0" stop-color="#4f52ff"/><stop offset="1" stop-color="#4042e2"/></linearGradient><clipPath id="AM"><path d="M17664.9 12261.2c0 24.3-19.8 44-44.1 44h-416.1c-24.3 0-44-19.7-44-44v-416.1c0-24.4 19.7-44.1 44-44.1h416.1c24.3 0 44.1 19.7 44.1 44.1z"/></clipPath><linearGradient x1="0" y1="0" x2="1" y2="0" gradientTransform="matrix(-403.705,2766.12,2766.12,403.705,17662,10345.7)" spreadMethod="pad" id="AN" xlink:href="#Cj"><stop offset="0" stop-color="#4f52ff"/><stop offset="1" stop-color="#4042e2"/></linearGradient><clipPath id="AO"><path d="M18404.3 12261.2c0 24.3-19.7 44-44 44h-416.1c-24.4 0-44.1-19.7-44.1-44v-416.1c0-24.4 19.7-44.1 44.1-44.1h416.1c24.3 0 44 19.7 44 44.1z"/></clipPath><linearGradient x1="0" y1="0" x2="1" y2="0" gradientTransform="matrix(-403.705,2766.12,2766.12,403.705,18401.4,10345.7)" spreadMethod="pad" id="AP" xlink:href="#Cj"><stop offset="0" stop-color="#4f52ff"/><stop offset="1" stop-color="#4042e2"/></linearGradient><clipPath id="AQ"><path d="M19110.1 12261.2c0 24.3-19.7 44-44 44H18650c-24.3 0-44.1-19.7-44.1-44v-416.1c0-24.4 19.8-44.1 44.1-44.1h416.1c24.3 0 44 19.7 44 44.1z"/></clipPath><linearGradient x1="0" y1="0" x2="1" y2="0" gradientTransform="matrix(-403.705,2766.12,2766.12,403.705,19107.2,10345.7)" spreadMethod="pad" id="AR" xlink:href="#Cj"><stop offset="0" stop-color="#4f52ff"/><stop offset="1" stop-color="#4042e2"/></linearGradient><clipPath id="AS"><path d="M19815.9 12261.2c0 24.3-19.7 44-44 44h-416.1c-24.3 0-44-19.7-44-44v-416.1c0-24.4 19.7-44.1 44-44.1h416.1c24.3 0 44 19.7 44 44.1z"/></clipPath><linearGradient x1="0" y1="0" x2="1" y2="0" gradientTransform="matrix(-403.705,2766.12,2766.12,403.705,19813,10345.7)" spreadMethod="pad" id="AT" xlink:href="#Cj"><stop offset="0" stop-color="#4f52ff"/><stop offset="1" stop-color="#4042e2"/></linearGradient><clipPath id="AU"><path d="M10505.8 11588.9c0 24.4-19.7 44.1-44 44.1h-416.1c-24.3 0-44.1-19.7-44.1-44.1v-416.1c0-24.3 19.8-44 44.1-44h416.1c24.3 0 44 19.7 44 44z"/></clipPath><linearGradient x1="0" y1="0" x2="1" y2="0" gradientTransform="matrix(-403.705,2766.11,2766.11,403.705,10502.9,9673.5)" spreadMethod="pad" id="AV" xlink:href="#Cj"><stop offset="0" stop-color="#4f52ff"/><stop offset="1" stop-color="#4042e2"/></linearGradient><clipPath id="AW"><path d="M11211.6 11588.9c0 24.4-19.7 44.1-44 44.1h-416.1c-24.3 0-44-19.7-44-44.1v-416.1c0-24.3 19.7-44 44-44h416.1c24.3 0 44 19.7 44 44z"/></clipPath><linearGradient x1="0" y1="0" x2="1" y2="0" gradientTransform="matrix(-403.705,2766.11,2766.11,403.705,11208.7,9673.5)" spreadMethod="pad" id="AX" xlink:href="#Cj"><stop offset="0" stop-color="#4f52ff"/><stop offset="1" stop-color="#4042e2"/></linearGradient><clipPath id="AY"><path d="M11951.1 11588.9c0 24.4-19.8 44.1-44.1 44.1h-416.1c-24.3 0-44-19.7-44-44.1v-416.1c0-24.3 19.7-44 44-44h416.1c24.3 0 44.1 19.7 44.1 44z"/></clipPath><linearGradient x1="0" y1="0" x2="1" y2="0" gradientTransform="matrix(-403.705,2766.11,2766.11,403.705,11948.2,9673.5)" spreadMethod="pad" id="AZ" xlink:href="#Cj"><stop offset="0" stop-color="#4f52ff"/><stop offset="1" stop-color="#4042e2"/></linearGradient><clipPath id="Aa"><path d="M12656.9 11588.9c0 24.4-19.7 44.1-44 44.1h-416.2c-24.3 0-44-19.7-44-44.1v-416.1c0-24.3 19.7-44 44-44h416.2c24.3 0 44 19.7 44 44z"/></clipPath><linearGradient x1="0" y1="0" x2="1" y2="0" gradientTransform="matrix(-403.705,2766.11,2766.11,403.705,12654,9673.5)" spreadMethod="pad" id="Ab" xlink:href="#Cj"><stop offset="0" stop-color="#4f52ff"/><stop offset="1" stop-color="#4042e2"/></linearGradient><clipPath id="Ac"><path d="M13362.7 11588.9c0 24.4-19.7 44.1-44 44.1h-416.1c-24.3 0-44.1-19.7-44.1-44.1v-416.1c0-24.3 19.8-44 44.1-44h416.1c24.3 0 44 19.7 44 44z"/></clipPath><linearGradient x1="0" y1="0" x2="1" y2="0" gradientTransform="matrix(-403.705,2766.11,2766.11,403.705,13359.8,9673.5)" spreadMethod="pad" id="Ad" xlink:href="#Cj"><stop offset="0" stop-color="#4f52ff"/><stop offset="1" stop-color="#4042e2"/></linearGradient><clipPath id="Ae"><path d="M14102.1 11588.9c0 24.4-19.7 44.1-44 44.1H13642c-24.3 0-44-19.7-44-44.1v-416.1c0-24.3 19.7-44 44-44h416.1c24.3 0 44 19.7 44 44z"/></clipPath><linearGradient x1="0" y1="0" x2="1" y2="0" gradientTransform="matrix(-403.705,2766.11,2766.11,403.705,14099.2,9673.5)" spreadMethod="pad" id="Af" xlink:href="#Cj"><stop offset="0" stop-color="#4f52ff"/><stop offset="1" stop-color="#4042e2"/></linearGradient><clipPath id="Ag"><path d="M14808 11588.9c0 24.4-19.8 44.1-44.1 44.1h-416.1c-24.3 0-44-19.7-44-44.1v-416.1c0-24.3 19.7-44 44-44h416.1c24.3 0 44.1 19.7 44.1 44z"/></clipPath><linearGradient x1="0" y1="0" x2="1" y2="0" gradientTransform="matrix(-403.705,2766.11,2766.11,403.705,14805.1,9673.5)" spreadMethod="pad" id="Ah" xlink:href="#Cj"><stop offset="0" stop-color="#4f52ff"/><stop offset="1" stop-color="#4042e2"/></linearGradient><clipPath id="Ai"><path d="M15513.8 11588.9c0 24.4-19.7 44.1-44 44.1h-416.2c-24.3 0-44-19.7-44-44.1v-416.1c0-24.3 19.7-44 44-44h416.2c24.3 0 44 19.7 44 44z"/></clipPath><linearGradient x1="0" y1="0" x2="1" y2="0" gradientTransform="matrix(-403.705,2766.11,2766.11,403.705,15510.9,9673.5)" spreadMethod="pad" id="Aj" xlink:href="#Cj"><stop offset="0" stop-color="#4f52ff"/><stop offset="1" stop-color="#4042e2"/></linearGradient><clipPath id="Ak"><path d="M16253.2 11588.9c0 24.4-19.7 44.1-44 44.1h-416.1c-24.3 0-44.1-19.7-44.1-44.1v-416.1c0-24.3 19.8-44 44.1-44h416.1c24.3 0 44 19.7 44 44z"/></clipPath><linearGradient x1="0" y1="0" x2="1" y2="0" gradientTransform="matrix(-403.704,2766.11,2766.11,403.704,16250.3,9673.5)" spreadMethod="pad" id="Al" xlink:href="#Cj"><stop offset="0" stop-color="#4f52ff"/><stop offset="1" stop-color="#4042e2"/></linearGradient><clipPath id="Am"><path d="M16959 11588.9c0 24.4-19.7 44.1-44 44.1h-416.1c-24.3 0-44-19.7-44-44.1v-416.1c0-24.3 19.7-44 44-44h416.1c24.3 0 44 19.7 44 44z"/></clipPath><linearGradient x1="0" y1="0" x2="1" y2="0" gradientTransform="matrix(-403.704,2766.11,2766.11,403.704,16956.1,9673.5)" spreadMethod="pad" id="An" xlink:href="#Cj"><stop offset="0" stop-color="#4f52ff"/><stop offset="1" stop-color="#4042e2"/></linearGradient><clipPath id="Ao"><path d="M17664.9 11588.9c0 24.4-19.8 44.1-44.1 44.1h-416.1c-24.3 0-44-19.7-44-44.1v-416.1c0-24.3 19.7-44 44-44h416.1c24.3 0 44.1 19.7 44.1 44z"/></clipPath><linearGradient x1="0" y1="0" x2="1" y2="0" gradientTransform="matrix(-403.704,2766.11,2766.11,403.704,17662,9673.5)" spreadMethod="pad" id="Ap" xlink:href="#Cj"><stop offset="0" stop-color="#4f52ff"/><stop offset="1" stop-color="#4042e2"/></linearGradient><clipPath id="Aq"><path d="M18404.3 11588.9c0 24.4-19.7 44.1-44 44.1h-416.1c-24.4 0-44.1-19.7-44.1-44.1v-416.1c0-24.3 19.7-44 44.1-44h416.1c24.3 0 44 19.7 44 44z"/></clipPath><linearGradient x1="0" y1="0" x2="1" y2="0" gradientTransform="matrix(-403.705,2766.11,2766.11,403.705,18401.4,9673.5)" spreadMethod="pad" id="Ar" xlink:href="#Cj"><stop offset="0" stop-color="#4f52ff"/><stop offset="1" stop-color="#4042e2"/></linearGradient><clipPath id="As"><path d="M19110.1 11588.9c0 24.4-19.7 44.1-44 44.1H18650c-24.3 0-44.1-19.7-44.1-44.1v-416.1c0-24.3 19.8-44 44.1-44h416.1c24.3 0 44 19.7 44 44z"/></clipPath><linearGradient x1="0" y1="0" x2="1" y2="0" gradientTransform="matrix(-403.705,2766.11,2766.11,403.705,19107.2,9673.5)" spreadMethod="pad" id="At" xlink:href="#Cj"><stop offset="0" stop-color="#4f52ff"/><stop offset="1" stop-color="#4042e2"/></linearGradient><clipPath id="Au"><path d="M19815.9 11588.9c0 24.4-19.7 44.1-44 44.1h-416.1c-24.3 0-44-19.7-44-44.1v-416.1c0-24.3 19.7-44 44-44h416.1c24.3 0 44 19.7 44 44z"/></clipPath><linearGradient x1="0" y1="0" x2="1" y2="0" gradientTransform="matrix(-403.705,2766.11,2766.11,403.705,19813,9673.5)" spreadMethod="pad" id="Av" xlink:href="#Cj"><stop offset="0" stop-color="#4f52ff"/><stop offset="1" stop-color="#4042e2"/></linearGradient><clipPath id="Aw"><path d="M10505.8 10916.7c0 24.4-19.7 44.1-44 44.1h-416.1c-24.3 0-44.1-19.7-44.1-44.1v-416.1c0-24.3 19.8-44 44.1-44h416.1c24.3 0 44 19.7 44 44z"/></clipPath><linearGradient x1="0" y1="0" x2="1" y2="0" gradientTransform="matrix(-403.705,2766.12,2766.12,403.705,10502.9,9001.3)" spreadMethod="pad" id="Ax" xlink:href="#Cj"><stop offset="0" stop-color="#4f52ff"/><stop offset="1" stop-color="#4042e2"/></linearGradient><clipPath id="Ay"><path d="M11211.6 10916.7c0 24.4-19.7 44.1-44 44.1h-416.1c-24.3 0-44-19.7-44-44.1v-416.1c0-24.3 19.7-44 44-44h416.1c24.3 0 44 19.7 44 44z"/></clipPath><linearGradient x1="0" y1="0" x2="1" y2="0" gradientTransform="matrix(-403.705,2766.12,2766.12,403.705,11208.7,9001.3)" spreadMethod="pad" id="Az" xlink:href="#Cj"><stop offset="0" stop-color="#4f52ff"/><stop offset="1" stop-color="#4042e2"/></linearGradient><clipPath id="BA"><path d="M11951.1 10916.7c0 24.4-19.8 44.1-44.1 44.1h-416.1c-24.3 0-44-19.7-44-44.1v-416.1c0-24.3 19.7-44 44-44h416.1c24.3 0 44.1 19.7 44.1 44z"/></clipPath><linearGradient x1="0" y1="0" x2="1" y2="0" gradientTransform="matrix(-403.705,2766.12,2766.12,403.705,11948.2,9001.3)" spreadMethod="pad" id="BB" xlink:href="#Cj"><stop offset="0" stop-color="#4f52ff"/><stop offset="1" stop-color="#4042e2"/></linearGradient><clipPath id="BC"><path d="M12656.9 10916.7c0 24.4-19.7 44.1-44 44.1h-416.2c-24.3 0-44-19.7-44-44.1v-416.1c0-24.3 19.7-44 44-44h416.2c24.3 0 44 19.7 44 44z"/></clipPath><linearGradient x1="0" y1="0" x2="1" y2="0" gradientTransform="matrix(-403.705,2766.12,2766.12,403.705,12654,9001.3)" spreadMethod="pad" id="BD" xlink:href="#Cj"><stop offset="0" stop-color="#4f52ff"/><stop offset="1" stop-color="#4042e2"/></linearGradient><clipPath id="BE"><path d="M13362.7 10916.7c0 24.4-19.7 44.1-44 44.1h-416.1c-24.3 0-44.1-19.7-44.1-44.1v-416.1c0-24.3 19.8-44 44.1-44h416.1c24.3 0 44 19.7 44 44z"/></clipPath><linearGradient x1="0" y1="0" x2="1" y2="0" gradientTransform="matrix(-403.705,2766.12,2766.12,403.705,13359.8,9001.3)" spreadMethod="pad" id="BF" xlink:href="#Cj"><stop offset="0" stop-color="#4f52ff"/><stop offset="1" stop-color="#4042e2"/></linearGradient><clipPath id="BG"><path d="M14102.1 10916.7c0 24.4-19.7 44.1-44 44.1H13642c-24.3 0-44-19.7-44-44.1v-416.1c0-24.3 19.7-44 44-44h416.1c24.3 0 44 19.7 44 44z"/></clipPath><linearGradient x1="0" y1="0" x2="1" y2="0" gradientTransform="matrix(-403.705,2766.12,2766.12,403.705,14099.2,9001.3)" spreadMethod="pad" id="BH" xlink:href="#Cj"><stop offset="0" stop-color="#4f52ff"/><stop offset="1" stop-color="#4042e2"/></linearGradient><clipPath id="BI"><path d="M14808 10916.7c0 24.4-19.8 44.1-44.1 44.1h-416.1c-24.3 0-44-19.7-44-44.1v-416.1c0-24.3 19.7-44 44-44h416.1c24.3 0 44.1 19.7 44.1 44z"/></clipPath><linearGradient x1="0" y1="0" x2="1" y2="0" gradientTransform="matrix(-403.705,2766.12,2766.12,403.705,14805.1,9001.3)" spreadMethod="pad" id="BJ" xlink:href="#Cj"><stop offset="0" stop-color="#4f52ff"/><stop offset="1" stop-color="#4042e2"/></linearGradient><clipPath id="BK"><path d="M15513.8 10916.7c0 24.4-19.7 44.1-44 44.1h-416.2c-24.3 0-44-19.7-44-44.1v-416.1c0-24.3 19.7-44 44-44h416.2c24.3 0 44 19.7 44 44z"/></clipPath><linearGradient x1="0" y1="0" x2="1" y2="0" gradientTransform="matrix(-403.705,2766.12,2766.12,403.705,15510.9,9001.3)" spreadMethod="pad" id="BL" xlink:href="#Cj"><stop offset="0" stop-color="#4f52ff"/><stop offset="1" stop-color="#4042e2"/></linearGradient><clipPath id="BM"><path d="M16253.2 10916.7c0 24.4-19.7 44.1-44 44.1h-416.1c-24.3 0-44.1-19.7-44.1-44.1v-416.1c0-24.3 19.8-44 44.1-44h416.1c24.3 0 44 19.7 44 44z"/></clipPath><linearGradient x1="0" y1="0" x2="1" y2="0" gradientTransform="matrix(-403.705,2766.12,2766.12,403.705,16250.3,9001.3)" spreadMethod="pad" id="BN" xlink:href="#Cj"><stop offset="0" stop-color="#4f52ff"/><stop offset="1" stop-color="#4042e2"/></linearGradient><clipPath id="BO"><path d="M16959 10916.7c0 24.4-19.7 44.1-44 44.1h-416.1c-24.3 0-44-19.7-44-44.1v-416.1c0-24.3 19.7-44 44-44h416.1c24.3 0 44 19.7 44 44z"/></clipPath><linearGradient x1="0" y1="0" x2="1" y2="0" gradientTransform="matrix(-403.705,2766.12,2766.12,403.705,16956.1,9001.3)" spreadMethod="pad" id="BP" xlink:href="#Cj"><stop offset="0" stop-color="#4f52ff"/><stop offset="1" stop-color="#4042e2"/></linearGradient><clipPath id="BQ"><path d="M17664.9 10916.7c0 24.4-19.8 44.1-44.1 44.1h-416.1c-24.3 0-44-19.7-44-44.1v-416.1c0-24.3 19.7-44 44-44h416.1c24.3 0 44.1 19.7 44.1 44z"/></clipPath><linearGradient x1="0" y1="0" x2="1" y2="0" gradientTransform="matrix(-403.705,2766.12,2766.12,403.705,17662,9001.3)" spreadMethod="pad" id="BR" xlink:href="#Cj"><stop offset="0" stop-color="#4f52ff"/><stop offset="1" stop-color="#4042e2"/></linearGradient><clipPath id="BS"><path d="M18404.3 10916.7c0 24.4-19.7 44.1-44 44.1h-416.1c-24.4 0-44.1-19.7-44.1-44.1v-416.1c0-24.3 19.7-44 44.1-44h416.1c24.3 0 44 19.7 44 44z"/></clipPath><linearGradient x1="0" y1="0" x2="1" y2="0" gradientTransform="matrix(-403.705,2766.12,2766.12,403.705,18401.4,9001.3)" spreadMethod="pad" id="BT" xlink:href="#Cj"><stop offset="0" stop-color="#4f52ff"/><stop offset="1" stop-color="#4042e2"/></linearGradient><clipPath id="BU"><path d="M19110.1 10916.7c0 24.4-19.7 44.1-44 44.1H18650c-24.3 0-44.1-19.7-44.1-44.1v-416.1c0-24.3 19.8-44 44.1-44h416.1c24.3 0 44 19.7 44 44z"/></clipPath><linearGradient x1="0" y1="0" x2="1" y2="0" gradientTransform="matrix(-403.705,2766.12,2766.12,403.705,19107.2,9001.3)" spreadMethod="pad" id="BV" xlink:href="#Cj"><stop offset="0" stop-color="#4f52ff"/><stop offset="1" stop-color="#4042e2"/></linearGradient><clipPath id="BW"><path d="M19815.9 10916.7c0 24.4-19.7 44.1-44 44.1h-416.1c-24.3 0-44-19.7-44-44.1v-416.1c0-24.3 19.7-44 44-44h416.1c24.3 0 44 19.7 44 44z"/></clipPath><linearGradient x1="0" y1="0" x2="1" y2="0" gradientTransform="matrix(-403.705,2766.12,2766.12,403.705,19813,9001.3)" spreadMethod="pad" id="BX" xlink:href="#Cj"><stop offset="0" stop-color="#4f52ff"/><stop offset="1" stop-color="#4042e2"/></linearGradient><clipPath id="BY"><path d="M10505.8 10210.9c0 24.3-19.7 44-44 44h-416.1c-24.3 0-44.1-19.7-44.1-44v-416.1c0-24.3 19.8-44 44.1-44h416.1c24.3 0 44 19.7 44 44z"/></clipPath><linearGradient x1="0" y1="0" x2="1" y2="0" gradientTransform="matrix(-403.705,2766.12,2766.12,403.705,10502.9,8295.5)" spreadMethod="pad" id="BZ" xlink:href="#Cj"><stop offset="0" stop-color="#4f52ff"/><stop offset="1" stop-color="#4042e2"/></linearGradient><clipPath id="Ba"><path d="M11211.6 10210.9c0 24.3-19.7 44-44 44h-416.1c-24.3 0-44-19.7-44-44v-416.1c0-24.3 19.7-44 44-44h416.1c24.3 0 44 19.7 44 44z"/></clipPath><linearGradient x1="0" y1="0" x2="1" y2="0" gradientTransform="matrix(-403.705,2766.12,2766.12,403.705,11208.7,8295.5)" spreadMethod="pad" id="Bb" xlink:href="#Cj"><stop offset="0" stop-color="#4f52ff"/><stop offset="1" stop-color="#4042e2"/></linearGradient><clipPath id="Bc"><path d="M11951.1 10210.9c0 24.3-19.8 44-44.1 44h-416.1c-24.3 0-44-19.7-44-44v-416.1c0-24.3 19.7-44 44-44h416.1c24.3 0 44.1 19.7 44.1 44z"/></clipPath><linearGradient x1="0" y1="0" x2="1" y2="0" gradientTransform="matrix(-403.705,2766.12,2766.12,403.705,11948.2,8295.5)" spreadMethod="pad" id="Bd" xlink:href="#Cj"><stop offset="0" stop-color="#4f52ff"/><stop offset="1" stop-color="#4042e2"/></linearGradient><clipPath id="Be"><path d="M12656.9 10210.9c0 24.3-19.7 44-44 44h-416.2c-24.3 0-44-19.7-44-44v-416.1c0-24.3 19.7-44 44-44h416.2c24.3 0 44 19.7 44 44z"/></clipPath><linearGradient x1="0" y1="0" x2="1" y2="0" gradientTransform="matrix(-403.705,2766.12,2766.12,403.705,12654,8295.5)" spreadMethod="pad" id="Bf" xlink:href="#Cj"><stop offset="0" stop-color="#4f52ff"/><stop offset="1" stop-color="#4042e2"/></linearGradient><clipPath id="Bg"><path d="M13362.7 10210.9c0 24.3-19.7 44-44 44h-416.1c-24.3 0-44.1-19.7-44.1-44v-416.1c0-24.3 19.8-44 44.1-44h416.1c24.3 0 44 19.7 44 44z"/></clipPath><linearGradient x1="0" y1="0" x2="1" y2="0" gradientTransform="matrix(-403.705,2766.12,2766.12,403.705,13359.8,8295.5)" spreadMethod="pad" id="Bh" xlink:href="#Cj"><stop offset="0" stop-color="#4f52ff"/><stop offset="1" stop-color="#4042e2"/></linearGradient><clipPath id="Bi"><path d="M14102.1 10210.9c0 24.3-19.7 44-44 44H13642c-24.3 0-44-19.7-44-44v-416.1c0-24.3 19.7-44 44-44h416.1c24.3 0 44 19.7 44 44z"/></clipPath><linearGradient x1="0" y1="0" x2="1" y2="0" gradientTransform="matrix(-403.705,2766.12,2766.12,403.705,14099.2,8295.5)" spreadMethod="pad" id="Bj" xlink:href="#Cj"><stop offset="0" stop-color="#4f52ff"/><stop offset="1" stop-color="#4042e2"/></linearGradient><clipPath id="Bk"><path d="M14808 10210.9c0 24.3-19.8 44-44.1 44h-416.1c-24.3 0-44-19.7-44-44v-416.1c0-24.3 19.7-44 44-44h416.1c24.3 0 44.1 19.7 44.1 44z"/></clipPath><linearGradient x1="0" y1="0" x2="1" y2="0" gradientTransform="matrix(-403.705,2766.12,2766.12,403.705,14805.1,8295.5)" spreadMethod="pad" id="Bl" xlink:href="#Cj"><stop offset="0" stop-color="#4f52ff"/><stop offset="1" stop-color="#4042e2"/></linearGradient><clipPath id="Bm"><path d="M15513.8 10210.9c0 24.3-19.7 44-44 44h-416.2c-24.3 0-44-19.7-44-44v-416.1c0-24.3 19.7-44 44-44h416.2c24.3 0 44 19.7 44 44z"/></clipPath><linearGradient x1="0" y1="0" x2="1" y2="0" gradientTransform="matrix(-403.705,2766.12,2766.12,403.705,15510.9,8295.5)" spreadMethod="pad" id="Bn" xlink:href="#Cj"><stop offset="0" stop-color="#4f52ff"/><stop offset="1" stop-color="#4042e2"/></linearGradient><clipPath id="Bo"><path d="M16253.2 10210.9c0 24.3-19.7 44-44 44h-416.1c-24.3 0-44.1-19.7-44.1-44v-416.1c0-24.3 19.8-44 44.1-44h416.1c24.3 0 44 19.7 44 44z"/></clipPath><linearGradient x1="0" y1="0" x2="1" y2="0" gradientTransform="matrix(-403.705,2766.12,2766.12,403.705,16250.3,8295.5)" spreadMethod="pad" id="Bp" xlink:href="#Cj"><stop offset="0" stop-color="#4f52ff"/><stop offset="1" stop-color="#4042e2"/></linearGradient><clipPath id="Bq"><path d="M16959 10210.9c0 24.3-19.7 44-44 44h-416.1c-24.3 0-44-19.7-44-44v-416.1c0-24.3 19.7-44 44-44h416.1c24.3 0 44 19.7 44 44z"/></clipPath><linearGradient x1="0" y1="0" x2="1" y2="0" gradientTransform="matrix(-403.705,2766.12,2766.12,403.705,16956.1,8295.5)" spreadMethod="pad" id="Br" xlink:href="#Cj"><stop offset="0" stop-color="#4f52ff"/><stop offset="1" stop-color="#4042e2"/></linearGradient><clipPath id="Bs"><path d="M17664.9 10210.9c0 24.3-19.8 44-44.1 44h-416.1c-24.3 0-44-19.7-44-44v-416.1c0-24.3 19.7-44 44-44h416.1c24.3 0 44.1 19.7 44.1 44z"/></clipPath><linearGradient x1="0" y1="0" x2="1" y2="0" gradientTransform="matrix(-403.705,2766.12,2766.12,403.705,17662,8295.5)" spreadMethod="pad" id="Bt" xlink:href="#Cj"><stop offset="0" stop-color="#4f52ff"/><stop offset="1" stop-color="#4042e2"/></linearGradient><clipPath id="Bu"><path d="M18404.3 10210.9c0 24.3-19.7 44-44 44h-416.1c-24.4 0-44.1-19.7-44.1-44v-416.1c0-24.3 19.7-44 44.1-44h416.1c24.3 0 44 19.7 44 44z"/></clipPath><linearGradient x1="0" y1="0" x2="1" y2="0" gradientTransform="matrix(-403.705,2766.12,2766.12,403.705,18401.4,8295.5)" spreadMethod="pad" id="Bv" xlink:href="#Cj"><stop offset="0" stop-color="#4f52ff"/><stop offset="1" stop-color="#4042e2"/></linearGradient><clipPath id="Bw"><path d="M19110.1 10210.9c0 24.3-19.7 44-44 44H18650c-24.3 0-44.1-19.7-44.1-44v-416.1c0-24.3 19.8-44 44.1-44h416.1c24.3 0 44 19.7 44 44z"/></clipPath><linearGradient x1="0" y1="0" x2="1" y2="0" gradientTransform="matrix(-403.705,2766.12,2766.12,403.705,19107.2,8295.5)" spreadMethod="pad" id="Bx" xlink:href="#Cj"><stop offset="0" stop-color="#4f52ff"/><stop offset="1" stop-color="#4042e2"/></linearGradient><clipPath id="By"><path d="M19815.9 10210.9c0 24.3-19.7 44-44 44h-416.1c-24.3 0-44-19.7-44-44v-416.1c0-24.3 19.7-44 44-44h416.1c24.3 0 44 19.7 44 44z"/></clipPath><linearGradient x1="0" y1="0" x2="1" y2="0" gradientTransform="matrix(-403.705,2766.12,2766.12,403.705,19813,8295.5)" spreadMethod="pad" id="Bz" xlink:href="#Cj"><stop offset="0" stop-color="#4f52ff"/><stop offset="1" stop-color="#4042e2"/></linearGradient><clipPath id="CA"><path d="M20191.5 13179.1H9724.74a368.03 368.03 0 0 0-25.59.9c-157.69 10.9-336.11 120.4-336.11 275.3v3006 2496.1 99.2a2863.97 2863.97 0 0 0 1.42 90c27.05 856.9 439.02 1629 1064.14 2156.4 282.7 238.4 609.1 426.9 963 550.4 196 68.3 400.2 116.8 610.5 142.9 118.7 14.7 239.4 22.3 361.3 22.3h3912.4 1277c943.6 0 1760.7-454.7 2278.8-1154.6 371.6-502.2 589.3-1130.4 589.3-1807.4v-5601.3c0-163.3-66.2-276.2-229.4-276.2m-5261.7 6707.8c-1545.2 0-2802.2-1257.1-2802.2-2802.2 0-1545.2 1257-2802.3 2802.2-2802.3s2802.2 1257.1 2802.2 2802.3c0 1545.1-1257 2802.2-2802.2 2802.2m0-5491.3c-1482.7 0-2689 1206.3-2689 2689.1 0 1482.7 1206.3 2689 2689 2689s2689-1206.3 2689-2689c0-1482.8-1206.3-2689.1-2689-2689.1"/></clipPath><linearGradient x1="0" y1="0" x2="1" y2="0" gradientTransform="matrix(5665.2,22774,22774,-5665.2,11283.3,1893.2)" spreadMethod="pad" id="CB" xlink:href="#Cj"><stop offset="0" stop-color="#4f52ff"/><stop offset="1" stop-color="#4042e2"/></linearGradient><clipPath id="CC"><path d="M17552.8 4910.9h-5189.4c-1008.4 0-1914.1 500.1-2442.44 1274.9-112.47 165-225.23 333.4-302.21 520.2-118.97 287.1-216.52 596.7-246.32 921-6.12 66.7-9.39 134-9.39 201.8V9241c0 154.7 178.6 293.1 336.11 307 8.56.7 17.06 1.1 25.47 1.1h9363.98c-601-848.3-1049.7-1881.9-1189.3-2823.3H9651.77c77-201.6 173.24-369.7 285.7-537.7h7916.63c-6.8-458.4 75.6-878.4 268.1-1222.9l-14.6-2.7c-179.7-33.9-365.1-51.6-554.8-51.6"/></clipPath><linearGradient x1="0" y1="0" x2="1" y2="0" gradientTransform="matrix(5658.05,22745.3,22745.3,-5658.05,13176.2,1421.8)" spreadMethod="pad" id="CD" xlink:href="#Cj"><stop offset="0" stop-color="#4f52ff"/><stop offset="1" stop-color="#4042e2"/></linearGradient><clipPath id="CE"><path d="M14929.8 14282.4c-1545.2 0-2802.2 1257.1-2802.2 2802.3 0 1545.1 1257 2802.2 2802.2 2802.2s2802.2-1257.1 2802.2-2802.2c0-1545.2-1257-2802.3-2802.2-2802.3m0 5491.3c-1482.7 0-2689-1206.3-2689-2689 0-1482.8 1206.3-2689.1 2689-2689.1s2689 1206.3 2689 2689.1c0 1482.7-1206.3 2689-2689 2689"/></clipPath><linearGradient x1="0" y1="0" x2="1" y2="0" gradientTransform="matrix(5665.2,22774,22774,-5665.2,11283.3,1893.2)" spreadMethod="pad" id="CF" xlink:href="#Cj"><stop offset="0" stop-color="#7b84fd"/><stop offset="1" stop-color="#727bec"/></linearGradient><clipPath id="CG"><path d="M10106.9 13861.8s-6992.52 3455-4705.71 5998.8 6550.11 1527 6766.11-1150.4c216-2677.3-4973.06-2049.2-2060.4-4848.4z"/></clipPath><linearGradient x1="0" y1="0" x2="1" y2="0" gradientTransform="matrix(-4369.37,-12570.4,-12570.4,4369.37,9761.14,22093.4)" spreadMethod="pad" id="CH" xlink:href="#Cj"><stop offset="0" stop-color="#febbba"/><stop offset="1" stop-color="#ff928e"/></linearGradient><clipPath id="CI"><path d="M25904.3 20270.3c22.3 42.6 85.4 35.9 98.3-10.5 47.7-171.7 163.2-471.4 405.5-577.8 12.2-5.4 23.8-10.8 34.9-16.2 11 32.9 11.2 71.2-15.1 111.4-75.4 115.1 60.6 272.4 60.6 272.4s9-138.5 114.3-225.7c90.6-75.1 134.2-242.2 72.2-379.3-131.1-509.4-327.5-1183.1 437.4-1675.3s1842.2 928.9 1842.2 928.9l-534.7-1695s-825.2-608.9-1785.1 247.4-323.7 2102.4-323.7 2102.4-732.1 295.3-406.8 917.3z"/></clipPath><linearGradient x1="0" y1="0" x2="1" y2="0" gradientTransform="matrix(5444.92,9679.85,9679.85,-5444.92,29379.9,22579.6)" spreadMethod="pad" id="CJ" xlink:href="#Cj"><stop offset="0" stop-color="#febbba"/><stop offset="1" stop-color="#ff928e"/></linearGradient><clipPath id="CK"><path d="M29052.7 21058.2s-279.3 1173.9 811.7 786.5c0 0 514.1 66 577.6-543.8 0 0 352.2-298.8 138.6-806.3 0 0 968.1 401.3 1468.5-712.7 500.3-1114 137.2-1678.9-272-1802.3 0 0 352-236.2 220.4-699.9-131.6-463.6-924.2-737.7-1439.7-122.9 0 0-1353.1-120.5-1398.5 1071.7 0 0-666.6 555.8-59.1 1492.4 607.5 936.7-47.5 1337.3-47.5 1337.3z"/></clipPath><linearGradient x1="0" y1="0" x2="1" y2="0" gradientTransform="matrix(-2598.02,-2050.11,-2029.87,3521.64,33214.7,21555.4)" spreadMethod="pad" id="CL" xlink:href="#Cj"><stop offset="0" stop-color="#09005d"/><stop offset="1" stop-color="#1a0f91"/></linearGradient><clipPath id="CM"><path d="M29026 18884.4c228.8 68.6 895 195.2 1528.7-389.6 107.5-99.2 151.4-249.9 113.1-391-170.2-626.6-619.3-2477.9-225.5-3279 0 0-694-764.9-1451-148.4 0 0-339.6 1480.3-784.5 2130.2-307.1 448.7 489.8 1684.8 691.4 1983.4 30.5 45.2 75.5 78.7 127.8 94.4z"/></clipPath><linearGradient x1="0" y1="0" x2="1" y2="0" gradientTransform="matrix(973.083,-5984.43,-5984.43,-973.083,29628.1,16282)" spreadMethod="pad" id="CN" xlink:href="#Cj"><stop offset="0" stop-color="#4f52ff"/><stop offset="1" stop-color="#4042e2"/></linearGradient><clipPath id="CO"><path d="M29657.7 20129.3s338.4-957.2 363.9-1379.5c0 0-374-170-726.4 117 0 0-37 956.1-90.4 1127.3z"/></clipPath><linearGradient x1="0" y1="0" x2="1" y2="0" gradientTransform="matrix(539.152,1197.37,1197.37,-539.152,29119.4,18275.4)" spreadMethod="pad" id="CP" xlink:href="#Cj"><stop offset="0" stop-color="#febbba"/><stop offset="1" stop-color="#ff928e"/></linearGradient><clipPath id="CQ"><path d="M29187.7 21434.4s-885.1-1238.7-356-1598.4c529.1-359.8 1159.1 520.4 1159.1 520.4s205.4 678-9.3 908c-214.8 230-793.8 170-793.8 170z"/></clipPath><linearGradient x1="0" y1="0" x2="1" y2="0" gradientTransform="matrix(1094.16,-2368.88,-2368.88,-1094.16,29091.7,21185.3)" spreadMethod="pad" id="CR" xlink:href="#Cj"><stop offset="0" stop-color="#febbba"/><stop offset="1" stop-color="#ff928e"/></linearGradient><clipPath id="CS"><path d="M29597.4 21730.4s-406.6-96.4-463.6-280.3c-57-184 576.6-354.6 754.1-363l143.1-742.3s422.8 698.3 255.3 1101.7c-167.5 403.3-688.9 283.9-688.9 283.9z"/></clipPath><linearGradient x1="0" y1="0" x2="1" y2="0" gradientTransform="matrix(-2904.75,-1936.69,-1936.69,2904.75,32780.1,23058.5)" spreadMethod="pad" id="CT" xlink:href="#Cj"><stop offset="0" stop-color="#09005d"/><stop offset="1" stop-color="#1a0f91"/></linearGradient><clipPath id="CU"><path d="M29819.3 20447.6s344.5 398.9 481.5 138.8-310.1-455.3-464.9-327.6z"/></clipPath><linearGradient x1="0" y1="0" x2="1" y2="0" gradientTransform="matrix(1094.15,-2368.86,-2368.86,-1094.15,29606.5,21423.1)" spreadMethod="pad" id="CV" xlink:href="#Cj"><stop offset="0" stop-color="#febbba"/><stop offset="1" stop-color="#ff928e"/></linearGradient><clipPath id="CW"><path d="M28107.6 11568.3c2.6-67.2-115.4-600.2-179.6-884.6-25.8-114.4-7.8-234.1 50.4-335.9l2223.9-3742.9c26.9-45.2 46.5-94.3 58.4-145.6 40.7-175.6 125.2-606.1 81.1-997.7l-115-238.9 497.5 112.9 108.3 1336.2-140.9 85.9c-121.7 74.2-216.4 185.1-270.7 316.9-201.1 488.5-700.4 1731.8-829.1 2337.8-146.3 688.7-911.1 1248-911.1 1248l134.4 317.7z"/></clipPath><linearGradient x1="32144.9" y1="3364.3" x2="28128.01" y2="10614.72" spreadMethod="pad" id="CX" xlink:href="#Cj"><stop offset="0" stop-color="#febbba"/><stop offset="1" stop-color="#ff928e"/></linearGradient><clipPath id="CY"><path d="M31277.3 5795.4s-268.7 426-300.3 591.8-119.6 458.6-285.3 370.5c0 0-78-805.5-51.1-1120.2 26.9-314.8-355.8-304.6-355.8-304.6s-105.5-14.9-182.7-92.1c-53.4-53.3-15.2-145.8 60-150.7 125.3-8.1 324.2-10.2 533.1 30.2 73 14.1 127.1 76.2 131.5 150.4l55.1 927.1 339-428z"/></clipPath><linearGradient x1="31278.5" y1="5922.5" x2="30084.33" y2="5933.845" spreadMethod="pad" id="CZ" xlink:href="#Cj"><stop offset="0" stop-color="#09005d"/><stop offset="1" stop-color="#1a0f91"/></linearGradient><clipPath id="Ca"><path d="M29436.1 10972.1l89.1-3823.4c10.6-475.5-75.1-1529.3-551.8-1844.3l207.4-153.5s259.2 220.3 512.5 644.3c284.5 476.3 370.5 563.3 370.5 563.3l-94.4 193.4c-41.3 84.6-53.5 180.3-34.4 272.6l540.2 2513.9c110.7 421.6 118.5 984.5-266.4 1455.7-385 471.3-772.7 178-772.7 178z"/></clipPath><linearGradient x1="27565.8" y1="8743.2" x2="33657.1" y2="6731.42" spreadMethod="pad" id="Cb" xlink:href="#Cj"><stop offset="0" stop-color="#febbba"/><stop offset="1" stop-color="#ff928e"/></linearGradient><clipPath id="Cc"><path d="M29876.3 5000c14.8-.2 27.4 10.4 29.4 25.1 15.9 111.6 81.9 559.1 136 674.9 61.9 132.7 264.1 691.2-.1 738.7 0 0-656.9-959.7-783-1089.1s-285.2-45.2-285.2-45.2-122.8-36.3-215.5-154.7c-44.1-56.3-3-139 68.5-139.7l442.5-4.2c128.5-1.3 244 76.8 291.8 196.1 77.9 194.5 211.7 479.8 367.6 606.4l-81.1-775.8c-1.8-17.3 11.7-32.4 29.1-32.5z"/></clipPath><linearGradient x1="30169.3" y1="5717.3" x2="28745.73" y2="5730.824" spreadMethod="pad" id="Cd" xlink:href="#Cj"><stop offset="0" stop-color="#09005d"/><stop offset="1" stop-color="#1a0f91"/></linearGradient><clipPath id="Ce"><path d="M28886.6 15037.4s99.7-317.8-53.4-841.2l-950.2-3317.9c-14.9-52.2 13.2-106.7 64.3-125 284.2-102.1 1218.4-390.3 2493.8-302.4 64.2 4.4 118.1 49.9 132 112.7l429.8 1934c225 1010.4 476.1 2100.1-628.8 2759-509.2-218.1-984.2-346.7-1487.5-219.2z"/></clipPath><linearGradient x1="28316.4" y1="15309.8" x2="31654.61" y2="7674.98" spreadMethod="pad" id="Cf" xlink:href="#Cj"><stop offset="0" stop-color="#09005d"/><stop offset="1" stop-color="#1a0f91"/></linearGradient><clipPath id="Cg"><path d="M30645.4 18369.8s1081-898.4 1349.3-2126.1c268.3-1227.6-1579.7-1358.1-1579.7-1358.1s-250.9 280.2-548.7 180.2c-297.8-99.9-23 489 325.4 487.4 348.5-1.5 187.1-277.1 680-53.8 480.2 217.5 777 890.3-448.2 1910-71 59.1-127.7 134.5-161.8 220.4-238 599.1-49.2 991.9 383.7 740z"/></clipPath><linearGradient x1="31759.1" y1="14550.2" x2="26001.46" y2="23086.96" spreadMethod="pad" id="Ch" xlink:href="#Cj"><stop offset="0" stop-color="#febbba"/><stop offset="1" stop-color="#ff928e"/></linearGradient><path id="Ci" d="M18068.2 21648.9h-6352.4c-18.6 0-33.6 15.1-33.6 33.6 0 18.6 15 33.6 33.6 33.6h6352.4c18.6 0 33.6-15 33.6-33.6 0-18.5-15-33.6-33.6-33.6"/><linearGradient id="Cj" gradientUnits="userSpaceOnUse"/></defs><g transform="matrix(.133333 0 0 -.133333 0 4946.6667)"><path d="M0 0h37100v37100H0z" fill="#fff"/><g clip-path="url(#A)"><path d="M19795.8 4958.5c927.1 199 2321.4 750 3496.5 2261l2804.6 125.3c891.8 57 1585.9 795.7 1584.8 1689.4-4.9 4028.2-65.5 14901.1-558.2 20794.4 175.7-129.9 348.1-264.5 517-404 6455-5329.6 5995.5-16096.2 1655.3-20599.1-572.7-594.2-1114.6-977.4-1542.8-1280.1-2672.2-1889.6-5604.9-2483.4-7957.2-2586.9m-1671.6 3.2l-16.6.8 14.6 2.7 2-3.5M9372.43 7627c-687.16 481.7-1354.46 1064.7-1966.95 1774.5-3025.71 3506.5-3373.79 8558.6-1994.89 12871.4 668.8-2068.4 1857.33-4236.6 3952.45-5811.6v-3006c0-154.9 178.42-264.4 336.11-275.3V9548c-157.51-13.9-336.11-152.3-336.11-307V7828.8c0-67.8 3.27-135.1 9.39-201.8" fill="url(#B)"/></g><path d="M7731.18 32552.3c-517.65-1944.7-3060.48-13392.2 7417.22-17893.2 0 0 3643.8 7071.9-7127.89 17965.5-94.22 95.3-255.5 54.8-289.33-72.3" fill="#bdd0fb"/><path d="M9677.62 24664.8l-118.78 115.2c-155.95 601.3-296.66 1206.4-424.44 1814-140.65 670.9-264.48 1345.2-371.82 2022.1-106.71 677.1-200.06 1355.9-264.72 2039.2-1.47 15.7 10.02 29.6 25.67 31 .91.1 1.82.2 2.72.2 14.52 0 26.91-11.1 28.31-25.8l.02-.5c67.62-680 164.08-1358.3 273.81-2033.5 110.32-675.3 237.11-1347.9 380.68-2016.9 140.32-652 295.58-1301 468.55-1945" fill="#f6f8fe"/><path d="M4582.44 28348.5c-73.41-1784.9-76.45-12189.2 9686.26-13945.8 0 0 1765.3 6849-9453.77 14067-98.14 63.2-227.69-4.6-232.49-121.2" fill="#91b3fa"/><path d="M9363.04 18957.4c-313.56 479.5-610.64 969.6-894.16 1467-293.34 510.9-567.44 1032.4-832.58 1558-264.26 526.2-516.93 1058.2-756.08 1596.1-239.5 537.8-468.02 1080.4-684.19 1627.9-215.19 548-421.84 1099-606.86 1658.7-4.92 14.9 3.19 31 18.12 35.9 2.97 1 5.98 1.5 8.94 1.5 11.89 0 22.98-7.5 26.97-19.4l.17-.5c187.22-556.2 396.86-1105.9 614.57-1651.5 218.83-545.4 449.9-1085.9 691.9-1621.3 241.65-535.6 496.68-1065.1 763.19-1588.5 267.41-523 543.65-1041.7 838.86-1549.3 259.14-448.9 529.31-891.5 812.57-1325.4a2863.97 2863.97 0 0 1-1.42-90v-99.2" fill="#eff4fe"/><g clip-path="url(#C)"><path d="M23292.3 7219.5c503.7 647.7 967.2 1472 1336.3 2520.5l502.6 50.2c652.9 71.8 1152 637.8 1169.3 1323 90.7 3573.4 335.8 14422.4 87 18673.5-39.7 678.2-557.8 1219.3-1207.3 1263.1-2083.9 140.4-6701.9 423.1-10108.2 423.1-985.7 0-1869.8-23.7-2561.8-81.3-578.8-48.2-1027.2-545.8-1036.1-1152l-82.5-8386.2c-353.9-123.5-680.3-312-963-550.4l-8.9 2602.6-1.2 6083.2 3 1323.5c1.9 669.4 513.2 1227.9 1180.1 1285.8 821.2 71.5 1834.2 100.8 2945.3 100.8 3891.7 0 8981.9-360.1 11206.6-533.5 663.4-51.6 1195.3-568.1 1265.8-1229.8l104.2-1107c492.7-5893.3 553.3-16766.2 558.2-20794.4 1.1-893.7-693-1632.4-1584.8-1689.4-831.9-53.2-1786.6-94.1-2804.6-125.3" fill="url(#D)"/></g><g clip-path="url(#E)"><path d="M24628.6 9740c78.2 222.2 152.1 454.1 221.4 696.9 437.1 183.5 743.8 634.9 756.3 1161.6 80.2 3356.8 295.9 13548.6 65.9 17542.4-36.6 637.1-509.6 1145.8-1102 1187.4-1909.4 134-6151.4 404.7-9262.1 404.7-881.9 0-1672.7-21.7-2293.8-74.5-527.9-44.9-936.5-512.1-944.1-1081.5l-68.1-7580.7c-210.3-26.1-414.5-74.6-610.5-142.9l82.5 8386.2c8.9 606.2 457.3 1103.8 1036.1 1152 692 57.6 1576.1 81.3 2561.8 81.3 3406.3 0 8024.3-282.7 10108.2-423.1 649.5-43.8 1167.6-584.9 1207.3-1263.1 248.8-4251.1 3.7-15100.1-87-18673.5-17.3-685.2-516.4-1251.2-1169.3-1323l-502.6-50.2" fill="url(#F)"/></g><g clip-path="url(#G)"><path d="M24850 10436.9c342 1199.5 568.2 2656 616.3 4424.4 1.6 58.4-45.5 94.3-93 94.3-30 0-60.2-14.4-78.3-46.5-452.3-802.9-1704.3-2871-3079.2-3794.9-278.5-187.1-552.3-395.1-817.1-619.6-46.2 817.6-194 1748.6-475.9 2808.5-9 33.8-37.4 50.6-65.8 50.6-29.2 0-58.3-17.7-66.3-52.6-98-426.4-319.9-1289.4-672.3-2104.3v1982.3h73.1c163.2 0 229.4 112.9 229.4 276.2v5601.3c0 677-217.7 1305.2-589.3 1807.4 1643.1 365.7 2871.3 1832.1 2871.3 3585.4 0 2028.6-1644.5 3673.2-3673.2 3673.2-2028.6 0-3673.2-1644.6-3673.2-3673.2 0-932.1 347.2-1783.1 919.3-2430.8h-3912.4c-121.9 0-242.6-7.6-361.3-22.3l68.1 7580.7c7.6 569.4 416.2 1036.6 944.1 1081.5 621.1 52.8 1411.9 74.5 2293.8 74.5 3110.7 0 7352.7-270.7 9262.1-404.7 592.4-41.6 1065.4-550.3 1102-1187.4 230-3993.8 14.3-14185.6-65.9-17542.4-12.5-526.7-319.2-978.1-756.3-1161.6" fill="url(#H)"/></g><path d="M17469.8 31989.3c2.1-96.7 79.3-174.9 176-177.8l2423.8-77.3c118.5-4.3 209.1 104.2 184.1 220.1-2.1 3.7-17.5 152.3-169.3 162.9-406.7 28.3-1633.6 104.5-2444.5 57.7-166.5-9.6-175.5-198.9-170.1-185.6" fill="#1f5aa9"/><g clip-path="url(#I)"><path d="M19831.6 20864c-518.1 699.9-1335.2 1154.6-2278.8 1154.6h-1277c-572.1 647.7-919.3 1498.7-919.3 2430.8 0 2028.6 1644.6 3673.2 3673.2 3673.2 2028.7 0 3673.2-1644.6 3673.2-3673.2 0-1753.3-1228.2-3219.7-2871.3-3585.4" fill="url(#J)"/></g><g clip-path="url(#K)"><path d="M20154.4 25837.4c0-622-504.2-1293.5-1126.2-1293.5s-1126.2 671.5-1126.2 1293.5c0 621.9 504.2 1063.2 1126.2 1063.2s1126.2-441.3 1126.2-1063.2" fill="url(#L)"/></g><g clip-path="url(#M)"><path d="M17630.6 22149.3h2749.2c289.4 0 545.6 187.1 633.8 462.7l147.9 462.4c108.3 338.5-67.8 705-401.6 827.1-1118.8 409.1-2275.7 356.6-3460.8-37.8-332-110.4-516.2-465.6-424.6-803.2l113.9-420c78.6-289.9 341.8-491.2 642.2-491.2" fill="url(#N)"/></g><g clip-path="url(#O)"><path d="M9699.15 9548v3632a368.03 368.03 0 0 1 25.59-.9H20118.4v-1982.3c-199-460.3-439.7-905.3-723.2-1247.3-105.8-127.7-208.2-261.6-306.6-400.4H9724.62c-8.41 0-16.91-.4-25.47-1.1" fill="url(#P)"/></g><g clip-path="url(#Q)"><path d="M10505.8 12933.4c0 24.3-19.7 44-44 44h-416.1c-24.3 0-44.1-19.7-44.1-44v-416.1c0-24.4 19.8-44.1 44.1-44.1h416.1c24.3 0 44 19.7 44 44.1v416.1" fill="url(#R)"/></g><g clip-path="url(#S)"><path d="M11211.6 12933.4c0 24.3-19.7 44-44 44h-416.1c-24.3 0-44-19.7-44-44v-416.1c0-24.4 19.7-44.1 44-44.1h416.1c24.3 0 44 19.7 44 44.1v416.1" fill="url(#T)"/></g><g clip-path="url(#U)"><path d="M11951.1 12933.4c0 24.3-19.8 44-44.1 44h-416.1c-24.3 0-44-19.7-44-44v-416.1c0-24.4 19.7-44.1 44-44.1h416.1c24.3 0 44.1 19.7 44.1 44.1v416.1" fill="url(#V)"/></g><g clip-path="url(#W)"><path d="M12656.9 12933.4c0 24.3-19.7 44-44 44h-416.2c-24.3 0-44-19.7-44-44v-416.1c0-24.4 19.7-44.1 44-44.1h416.2c24.3 0 44 19.7 44 44.1v416.1" fill="url(#X)"/></g><g clip-path="url(#Y)"><path d="M13362.7 12933.4c0 24.3-19.7 44-44 44h-416.1c-24.3 0-44.1-19.7-44.1-44v-416.1c0-24.4 19.8-44.1 44.1-44.1h416.1c24.3 0 44 19.7 44 44.1v416.1" fill="url(#Z)"/></g><g clip-path="url(#a)"><path d="M14102.1 12933.4c0 24.3-19.7 44-44 44H13642c-24.3 0-44-19.7-44-44v-416.1c0-24.4 19.7-44.1 44-44.1h416.1c24.3 0 44 19.7 44 44.1v416.1" fill="url(#b)"/></g><g clip-path="url(#c)"><path d="M14808 12933.4c0 24.3-19.8 44-44.1 44h-416.1c-24.3 0-44-19.7-44-44v-416.1c0-24.4 19.7-44.1 44-44.1h416.1c24.3 0 44.1 19.7 44.1 44.1v416.1" fill="url(#d)"/></g><g clip-path="url(#e)"><path d="M15513.8 12933.4c0 24.3-19.7 44-44 44h-416.2c-24.3 0-44-19.7-44-44v-416.1c0-24.4 19.7-44.1 44-44.1h416.2c24.3 0 44 19.7 44 44.1v416.1" fill="url(#f)"/></g><g clip-path="url(#g)"><path d="M16253.2 12933.4c0 24.3-19.7 44-44 44h-416.1c-24.3 0-44.1-19.7-44.1-44v-416.1c0-24.4 19.8-44.1 44.1-44.1h416.1c24.3 0 44 19.7 44 44.1v416.1" fill="url(#h)"/></g><g clip-path="url(#i)"><path d="M16959 12933.4c0 24.3-19.7 44-44 44h-416.1c-24.3 0-44-19.7-44-44v-416.1c0-24.4 19.7-44.1 44-44.1h416.1c24.3 0 44 19.7 44 44.1v416.1" fill="url(#j)"/></g><g clip-path="url(#k)"><path d="M17664.9 12933.4c0 24.3-19.8 44-44.1 44h-416.1c-24.3 0-44-19.7-44-44v-416.1c0-24.4 19.7-44.1 44-44.1h416.1c24.3 0 44.1 19.7 44.1 44.1v416.1" fill="url(#l)"/></g><g clip-path="url(#m)"><path d="M18404.3 12933.4c0 24.3-19.7 44-44 44h-416.1c-24.4 0-44.1-19.7-44.1-44v-416.1c0-24.4 19.7-44.1 44.1-44.1h416.1c24.3 0 44 19.7 44 44.1v416.1" fill="url(#n)"/></g><g clip-path="url(#o)"><path d="M19110.1 12933.4c0 24.3-19.7 44-44 44H18650c-24.3 0-44.1-19.7-44.1-44v-416.1c0-24.4 19.8-44.1 44.1-44.1h416.1c24.3 0 44 19.7 44 44.1v416.1" fill="url(#p)"/></g><g clip-path="url(#q)"><path d="M19815.9 12933.4c0 24.3-19.7 44-44 44h-416.1c-24.3 0-44-19.7-44-44v-416.1c0-24.4 19.7-44.1 44-44.1h416.1c24.3 0 44 19.7 44 44.1v416.1" fill="url(#r)"/></g><g clip-path="url(#s)"><path d="M10505.8 12261.2c0 24.3-19.7 44-44 44h-416.1c-24.3 0-44.1-19.7-44.1-44v-416.1c0-24.4 19.8-44.1 44.1-44.1h416.1c24.3 0 44 19.7 44 44.1v416.1" fill="url(#t)"/></g><g clip-path="url(#u)"><path d="M11211.6 12261.2c0 24.3-19.7 44-44 44h-416.1c-24.3 0-44-19.7-44-44v-416.1c0-24.4 19.7-44.1 44-44.1h416.1c24.3 0 44 19.7 44 44.1v416.1" fill="url(#v)"/></g><g clip-path="url(#w)"><path d="M11951.1 12261.2c0 24.3-19.8 44-44.1 44h-416.1c-24.3 0-44-19.7-44-44v-416.1c0-24.4 19.7-44.1 44-44.1h416.1c24.3 0 44.1 19.7 44.1 44.1v416.1" fill="url(#x)"/></g><g clip-path="url(#y)"><path d="M12656.9 12261.2c0 24.3-19.7 44-44 44h-416.2c-24.3 0-44-19.7-44-44v-416.1c0-24.4 19.7-44.1 44-44.1h416.2c24.3 0 44 19.7 44 44.1v416.1" fill="url(#z)"/></g><g clip-path="url(#AA)"><path d="M13362.7 12261.2c0 24.3-19.7 44-44 44h-416.1c-24.3 0-44.1-19.7-44.1-44v-416.1c0-24.4 19.8-44.1 44.1-44.1h416.1c24.3 0 44 19.7 44 44.1v416.1" fill="url(#AB)"/></g><g clip-path="url(#AC)"><path d="M14102.1 12261.2c0 24.3-19.7 44-44 44H13642c-24.3 0-44-19.7-44-44v-416.1c0-24.4 19.7-44.1 44-44.1h416.1c24.3 0 44 19.7 44 44.1v416.1" fill="url(#AD)"/></g><g clip-path="url(#AE)"><path d="M14808 12261.2c0 24.3-19.8 44-44.1 44h-416.1c-24.3 0-44-19.7-44-44v-416.1c0-24.4 19.7-44.1 44-44.1h416.1c24.3 0 44.1 19.7 44.1 44.1v416.1" fill="url(#AF)"/></g><g clip-path="url(#AG)"><path d="M15513.8 12261.2c0 24.3-19.7 44-44 44h-416.2c-24.3 0-44-19.7-44-44v-416.1c0-24.4 19.7-44.1 44-44.1h416.2c24.3 0 44 19.7 44 44.1v416.1" fill="url(#AH)"/></g><g clip-path="url(#AI)"><path d="M16253.2 12261.2c0 24.3-19.7 44-44 44h-416.1c-24.3 0-44.1-19.7-44.1-44v-416.1c0-24.4 19.8-44.1 44.1-44.1h416.1c24.3 0 44 19.7 44 44.1v416.1" fill="url(#AJ)"/></g><g clip-path="url(#AK)"><path d="M16959 12261.2c0 24.3-19.7 44-44 44h-416.1c-24.3 0-44-19.7-44-44v-416.1c0-24.4 19.7-44.1 44-44.1h416.1c24.3 0 44 19.7 44 44.1v416.1" fill="url(#AL)"/></g><g clip-path="url(#AM)"><path d="M17664.9 12261.2c0 24.3-19.8 44-44.1 44h-416.1c-24.3 0-44-19.7-44-44v-416.1c0-24.4 19.7-44.1 44-44.1h416.1c24.3 0 44.1 19.7 44.1 44.1v416.1" fill="url(#AN)"/></g><g clip-path="url(#AO)"><path d="M18404.3 12261.2c0 24.3-19.7 44-44 44h-416.1c-24.4 0-44.1-19.7-44.1-44v-416.1c0-24.4 19.7-44.1 44.1-44.1h416.1c24.3 0 44 19.7 44 44.1v416.1" fill="url(#AP)"/></g><g clip-path="url(#AQ)"><path d="M19110.1 12261.2c0 24.3-19.7 44-44 44H18650c-24.3 0-44.1-19.7-44.1-44v-416.1c0-24.4 19.8-44.1 44.1-44.1h416.1c24.3 0 44 19.7 44 44.1v416.1" fill="url(#AR)"/></g><g clip-path="url(#AS)"><path d="M19815.9 12261.2c0 24.3-19.7 44-44 44h-416.1c-24.3 0-44-19.7-44-44v-416.1c0-24.4 19.7-44.1 44-44.1h416.1c24.3 0 44 19.7 44 44.1v416.1" fill="url(#AT)"/></g><g clip-path="url(#AU)"><path d="M10505.8 11588.9c0 24.4-19.7 44.1-44 44.1h-416.1c-24.3 0-44.1-19.7-44.1-44.1v-416.1c0-24.3 19.8-44 44.1-44h416.1c24.3 0 44 19.7 44 44v416.1" fill="url(#AV)"/></g><g clip-path="url(#AW)"><path d="M11211.6 11588.9c0 24.4-19.7 44.1-44 44.1h-416.1c-24.3 0-44-19.7-44-44.1v-416.1c0-24.3 19.7-44 44-44h416.1c24.3 0 44 19.7 44 44v416.1" fill="url(#AX)"/></g><g clip-path="url(#AY)"><path d="M11951.1 11588.9c0 24.4-19.8 44.1-44.1 44.1h-416.1c-24.3 0-44-19.7-44-44.1v-416.1c0-24.3 19.7-44 44-44h416.1c24.3 0 44.1 19.7 44.1 44v416.1" fill="url(#AZ)"/></g><g clip-path="url(#Aa)"><path d="M12656.9 11588.9c0 24.4-19.7 44.1-44 44.1h-416.2c-24.3 0-44-19.7-44-44.1v-416.1c0-24.3 19.7-44 44-44h416.2c24.3 0 44 19.7 44 44v416.1" fill="url(#Ab)"/></g><g clip-path="url(#Ac)"><path d="M13362.7 11588.9c0 24.4-19.7 44.1-44 44.1h-416.1c-24.3 0-44.1-19.7-44.1-44.1v-416.1c0-24.3 19.8-44 44.1-44h416.1c24.3 0 44 19.7 44 44v416.1" fill="url(#Ad)"/></g><g clip-path="url(#Ae)"><path d="M14102.1 11588.9c0 24.4-19.7 44.1-44 44.1H13642c-24.3 0-44-19.7-44-44.1v-416.1c0-24.3 19.7-44 44-44h416.1c24.3 0 44 19.7 44 44v416.1" fill="url(#Af)"/></g><g clip-path="url(#Ag)"><path d="M14808 11588.9c0 24.4-19.8 44.1-44.1 44.1h-416.1c-24.3 0-44-19.7-44-44.1v-416.1c0-24.3 19.7-44 44-44h416.1c24.3 0 44.1 19.7 44.1 44v416.1" fill="url(#Ah)"/></g><g clip-path="url(#Ai)"><path d="M15513.8 11588.9c0 24.4-19.7 44.1-44 44.1h-416.2c-24.3 0-44-19.7-44-44.1v-416.1c0-24.3 19.7-44 44-44h416.2c24.3 0 44 19.7 44 44v416.1" fill="url(#Aj)"/></g><g clip-path="url(#Ak)"><path d="M16253.2 11588.9c0 24.4-19.7 44.1-44 44.1h-416.1c-24.3 0-44.1-19.7-44.1-44.1v-416.1c0-24.3 19.8-44 44.1-44h416.1c24.3 0 44 19.7 44 44v416.1" fill="url(#Al)"/></g><g clip-path="url(#Am)"><path d="M16959 11588.9c0 24.4-19.7 44.1-44 44.1h-416.1c-24.3 0-44-19.7-44-44.1v-416.1c0-24.3 19.7-44 44-44h416.1c24.3 0 44 19.7 44 44v416.1" fill="url(#An)"/></g><g clip-path="url(#Ao)"><path d="M17664.9 11588.9c0 24.4-19.8 44.1-44.1 44.1h-416.1c-24.3 0-44-19.7-44-44.1v-416.1c0-24.3 19.7-44 44-44h416.1c24.3 0 44.1 19.7 44.1 44v416.1" fill="url(#Ap)"/></g><g clip-path="url(#Aq)"><path d="M18404.3 11588.9c0 24.4-19.7 44.1-44 44.1h-416.1c-24.4 0-44.1-19.7-44.1-44.1v-416.1c0-24.3 19.7-44 44.1-44h416.1c24.3 0 44 19.7 44 44v416.1" fill="url(#Ar)"/></g><g clip-path="url(#As)"><path d="M19110.1 11588.9c0 24.4-19.7 44.1-44 44.1H18650c-24.3 0-44.1-19.7-44.1-44.1v-416.1c0-24.3 19.8-44 44.1-44h416.1c24.3 0 44 19.7 44 44v416.1" fill="url(#At)"/></g><g clip-path="url(#Au)"><path d="M19815.9 11588.9c0 24.4-19.7 44.1-44 44.1h-416.1c-24.3 0-44-19.7-44-44.1v-416.1c0-24.3 19.7-44 44-44h416.1c24.3 0 44 19.7 44 44v416.1" fill="url(#Av)"/></g><g clip-path="url(#Aw)"><path d="M10505.8 10916.7c0 24.4-19.7 44.1-44 44.1h-416.1c-24.3 0-44.1-19.7-44.1-44.1v-416.1c0-24.3 19.8-44 44.1-44h416.1c24.3 0 44 19.7 44 44v416.1" fill="url(#Ax)"/></g><g clip-path="url(#Ay)"><path d="M11211.6 10916.7c0 24.4-19.7 44.1-44 44.1h-416.1c-24.3 0-44-19.7-44-44.1v-416.1c0-24.3 19.7-44 44-44h416.1c24.3 0 44 19.7 44 44v416.1" fill="url(#Az)"/></g><g clip-path="url(#BA)"><path d="M11951.1 10916.7c0 24.4-19.8 44.1-44.1 44.1h-416.1c-24.3 0-44-19.7-44-44.1v-416.1c0-24.3 19.7-44 44-44h416.1c24.3 0 44.1 19.7 44.1 44v416.1" fill="url(#BB)"/></g><g clip-path="url(#BC)"><path d="M12656.9 10916.7c0 24.4-19.7 44.1-44 44.1h-416.2c-24.3 0-44-19.7-44-44.1v-416.1c0-24.3 19.7-44 44-44h416.2c24.3 0 44 19.7 44 44v416.1" fill="url(#BD)"/></g><g clip-path="url(#BE)"><path d="M13362.7 10916.7c0 24.4-19.7 44.1-44 44.1h-416.1c-24.3 0-44.1-19.7-44.1-44.1v-416.1c0-24.3 19.8-44 44.1-44h416.1c24.3 0 44 19.7 44 44v416.1" fill="url(#BF)"/></g><g clip-path="url(#BG)"><path d="M14102.1 10916.7c0 24.4-19.7 44.1-44 44.1H13642c-24.3 0-44-19.7-44-44.1v-416.1c0-24.3 19.7-44 44-44h416.1c24.3 0 44 19.7 44 44v416.1" fill="url(#BH)"/></g><g clip-path="url(#BI)"><path d="M14808 10916.7c0 24.4-19.8 44.1-44.1 44.1h-416.1c-24.3 0-44-19.7-44-44.1v-416.1c0-24.3 19.7-44 44-44h416.1c24.3 0 44.1 19.7 44.1 44v416.1" fill="url(#BJ)"/></g><g clip-path="url(#BK)"><path d="M15513.8 10916.7c0 24.4-19.7 44.1-44 44.1h-416.2c-24.3 0-44-19.7-44-44.1v-416.1c0-24.3 19.7-44 44-44h416.2c24.3 0 44 19.7 44 44v416.1" fill="url(#BL)"/></g><g clip-path="url(#BM)"><path d="M16253.2 10916.7c0 24.4-19.7 44.1-44 44.1h-416.1c-24.3 0-44.1-19.7-44.1-44.1v-416.1c0-24.3 19.8-44 44.1-44h416.1c24.3 0 44 19.7 44 44v416.1" fill="url(#BN)"/></g><g clip-path="url(#BO)"><path d="M16959 10916.7c0 24.4-19.7 44.1-44 44.1h-416.1c-24.3 0-44-19.7-44-44.1v-416.1c0-24.3 19.7-44 44-44h416.1c24.3 0 44 19.7 44 44v416.1" fill="url(#BP)"/></g><g clip-path="url(#BQ)"><path d="M17664.9 10916.7c0 24.4-19.8 44.1-44.1 44.1h-416.1c-24.3 0-44-19.7-44-44.1v-416.1c0-24.3 19.7-44 44-44h416.1c24.3 0 44.1 19.7 44.1 44v416.1" fill="url(#BR)"/></g><g clip-path="url(#BS)"><path d="M18404.3 10916.7c0 24.4-19.7 44.1-44 44.1h-416.1c-24.4 0-44.1-19.7-44.1-44.1v-416.1c0-24.3 19.7-44 44.1-44h416.1c24.3 0 44 19.7 44 44v416.1" fill="url(#BT)"/></g><g clip-path="url(#BU)"><path d="M19110.1 10916.7c0 24.4-19.7 44.1-44 44.1H18650c-24.3 0-44.1-19.7-44.1-44.1v-416.1c0-24.3 19.8-44 44.1-44h416.1c24.3 0 44 19.7 44 44v416.1" fill="url(#BV)"/></g><g clip-path="url(#BW)"><path d="M19815.9 10916.7c0 24.4-19.7 44.1-44 44.1h-416.1c-24.3 0-44-19.7-44-44.1v-416.1c0-24.3 19.7-44 44-44h416.1c24.3 0 44 19.7 44 44v416.1" fill="url(#BX)"/></g><g clip-path="url(#BY)"><path d="M10505.8 10210.9c0 24.3-19.7 44-44 44h-416.1c-24.3 0-44.1-19.7-44.1-44v-416.1c0-24.3 19.8-44 44.1-44h416.1c24.3 0 44 19.7 44 44v416.1" fill="url(#BZ)"/></g><g clip-path="url(#Ba)"><path d="M11211.6 10210.9c0 24.3-19.7 44-44 44h-416.1c-24.3 0-44-19.7-44-44v-416.1c0-24.3 19.7-44 44-44h416.1c24.3 0 44 19.7 44 44v416.1" fill="url(#Bb)"/></g><g clip-path="url(#Bc)"><path d="M11951.1 10210.9c0 24.3-19.8 44-44.1 44h-416.1c-24.3 0-44-19.7-44-44v-416.1c0-24.3 19.7-44 44-44h416.1c24.3 0 44.1 19.7 44.1 44v416.1" fill="url(#Bd)"/></g><g clip-path="url(#Be)"><path d="M12656.9 10210.9c0 24.3-19.7 44-44 44h-416.2c-24.3 0-44-19.7-44-44v-416.1c0-24.3 19.7-44 44-44h416.2c24.3 0 44 19.7 44 44v416.1" fill="url(#Bf)"/></g><g clip-path="url(#Bg)"><path d="M13362.7 10210.9c0 24.3-19.7 44-44 44h-416.1c-24.3 0-44.1-19.7-44.1-44v-416.1c0-24.3 19.8-44 44.1-44h416.1c24.3 0 44 19.7 44 44v416.1" fill="url(#Bh)"/></g><g clip-path="url(#Bi)"><path d="M14102.1 10210.9c0 24.3-19.7 44-44 44H13642c-24.3 0-44-19.7-44-44v-416.1c0-24.3 19.7-44 44-44h416.1c24.3 0 44 19.7 44 44v416.1" fill="url(#Bj)"/></g><g clip-path="url(#Bk)"><path d="M14808 10210.9c0 24.3-19.8 44-44.1 44h-416.1c-24.3 0-44-19.7-44-44v-416.1c0-24.3 19.7-44 44-44h416.1c24.3 0 44.1 19.7 44.1 44v416.1" fill="url(#Bl)"/></g><g clip-path="url(#Bm)"><path d="M15513.8 10210.9c0 24.3-19.7 44-44 44h-416.2c-24.3 0-44-19.7-44-44v-416.1c0-24.3 19.7-44 44-44h416.2c24.3 0 44 19.7 44 44v416.1" fill="url(#Bn)"/></g><g clip-path="url(#Bo)"><path d="M16253.2 10210.9c0 24.3-19.7 44-44 44h-416.1c-24.3 0-44.1-19.7-44.1-44v-416.1c0-24.3 19.8-44 44.1-44h416.1c24.3 0 44 19.7 44 44v416.1" fill="url(#Bp)"/></g><g clip-path="url(#Bq)"><path d="M16959 10210.9c0 24.3-19.7 44-44 44h-416.1c-24.3 0-44-19.7-44-44v-416.1c0-24.3 19.7-44 44-44h416.1c24.3 0 44 19.7 44 44v416.1" fill="url(#Br)"/></g><g clip-path="url(#Bs)"><path d="M17664.9 10210.9c0 24.3-19.8 44-44.1 44h-416.1c-24.3 0-44-19.7-44-44v-416.1c0-24.3 19.7-44 44-44h416.1c24.3 0 44.1 19.7 44.1 44v416.1" fill="url(#Bt)"/></g><g clip-path="url(#Bu)"><path d="M18404.3 10210.9c0 24.3-19.7 44-44 44h-416.1c-24.4 0-44.1-19.7-44.1-44v-416.1c0-24.3 19.7-44 44.1-44h416.1c24.3 0 44 19.7 44 44v416.1" fill="url(#Bv)"/></g><g clip-path="url(#Bw)"><path d="M19110.1 10210.9c0 24.3-19.7 44-44 44H18650c-24.3 0-44.1-19.7-44.1-44v-416.1c0-24.3 19.8-44 44.1-44h416.1c24.3 0 44 19.7 44 44v416.1" fill="url(#Bx)"/></g><g clip-path="url(#By)"><path d="M19815.9 10210.9c0 24.3-19.7 44-44 44h-416.1c-24.3 0-44-19.7-44-44v-416.1c0-24.3 19.7-44 44-44h416.1c24.3 0 44 19.7 44 44v416.1" fill="url(#Bz)"/></g><g clip-path="url(#CA)"><path d="M20191.5 13179.1H9724.74a368.03 368.03 0 0 0-25.59.9c-157.69 10.9-336.11 120.4-336.11 275.3v3006 2496.1 99.2a2863.97 2863.97 0 0 0 1.42 90c27.05 856.9 439.02 1629 1064.14 2156.4 282.7 238.4 609.1 426.9 963 550.4 196 68.3 400.2 116.8 610.5 142.9 118.7 14.7 239.4 22.3 361.3 22.3h3912.4 1277c943.6 0 1760.7-454.7 2278.8-1154.6 371.6-502.2 589.3-1130.4 589.3-1807.4v-5601.3c0-163.3-66.2-276.2-229.4-276.2m-5261.7 6707.8c-1545.2 0-2802.2-1257.1-2802.2-2802.2 0-1545.2 1257-2802.3 2802.2-2802.3s2802.2 1257.1 2802.2 2802.3c0 1545.1-1257 2802.2-2802.2 2802.2m0-5491.3c-1482.7 0-2689 1206.3-2689 2689.1 0 1482.7 1206.3 2689 2689 2689s2689-1206.3 2689-2689c0-1482.8-1206.3-2689.1-2689-2689.1" fill="url(#CB)"/></g><g clip-path="url(#CC)"><path d="M17552.8 4910.9h-5189.4c-1008.4 0-1914.1 500.1-2442.44 1274.9-112.47 165-225.23 333.4-302.21 520.2-118.97 287.1-216.52 596.7-246.32 921-6.12 66.7-9.39 134-9.39 201.8V9241c0 154.7 178.6 293.1 336.11 307 8.56.7 17.06 1.1 25.47 1.1h9363.98c-601-848.3-1049.7-1881.9-1189.3-2823.3H9651.77c77-201.6 173.24-369.7 285.7-537.7h7916.63c-6.8-458.4 75.6-878.4 268.1-1222.9l-14.6-2.7c-179.7-33.9-365.1-51.6-554.8-51.6" fill="url(#CD)"/></g><path d="M20264.4 6725.8c-77-201.6-173.2-369.7-285.7-537.7H9937.47c-112.46 168-208.7 336.1-285.7 537.7H20264.4" fill="#7d97f4"/><g fill="#91b3fa"><use xlink:href="#Ci"/><use xlink:href="#Ci" y="-16267.5"/></g><path d="M15446.6 16871c0-312.7-253.5-566.2-566.2-566.2h-10.5c-312.6 0-566.1 253.5-566.1 566.2v1556.6c0 312.6 253.5 566.1 566.1 566.1h10.5c312.7 0 566.2-253.5 566.2-566.1V16871m535.8-1440H14976v470.5h598.5c288.3 0 443.4 220.7 443.4 509v1382.7c0 63.5-54.1 115-117.6 115s-117.6-51.5-117.6-115v-1382.7c0-161.5-46.7-307.3-208.2-307.3h-495.6-197.2-528.4c-161.5 0-385.6 145.8-385.6 307.3v1349.9c0 63.5-54.1 115-117.6 115-63.6 0-117.7-51.5-117.7-115v-1349.9c0-288.3 332.5-509 620.9-509h421V15431h-829c-63.5 0-114.9-37.3-114.9-100.9 0-63.5 51.4-100.8 114.9-100.8h2037.1c63.5 0 115 37.3 115 100.8 0 63.6-51.5 100.9-115 100.9" fill="#bdd0fb"/><g clip-path="url(#CE)"><path d="M14929.8 14282.4c-1545.2 0-2802.2 1257.1-2802.2 2802.3 0 1545.1 1257 2802.2 2802.2 2802.2s2802.2-1257.1 2802.2-2802.2c0-1545.2-1257-2802.3-2802.2-2802.3m0 5491.3c-1482.7 0-2689-1206.3-2689-2689 0-1482.8 1206.3-2689.1 2689-2689.1s2689 1206.3 2689 2689.1c0 1482.7-1206.3 2689-2689 2689" fill="url(#CF)"/></g><path d="M28152.1 20468.1s-5869 5139.2-3003.9 7009.1c2865 1869.9 6723.8-210.3 6243.3-2853.5-480.4-2643.3-5334-700.4-3239.4-4155.6" fill="#91b3fa"/><g fill="#fff"><path d="M28040.2 23820.5l-444.7 594.6c-13.1 17.5-32.8 28.9-54.5 31.5-21.7 2.7-43.6-3.6-60.5-17.5-22.3-18.2-49.3-39.4-79-60.8a16.26 16.26 0 0 1-4-22.1l515.7-783.9c2.8-4.2 7.4-6.9 12.5-7.3 5.1-.3 10 1.7 13.4 5.6 60.6 69.6 94.6 139.2 111.6 182.5 10.1 25.8 6.2 55.1-10.5 77.4m-1387.6 1815.2c.3-.8 1.3-1.3 2.3-1 54.9 15.8 107.4 29.6 149.5 40.2 23.3 5.8 42.7 21.8 53 43.5 10.2 21.7 10.2 46.9-.1 68.5l-362.6 766.4c-18.2 38.5-63.4 56.1-102.8 39.9-36.3-14.9-84.3-36-138.3-63.2-6.9-3.5-9.7-11.7-6.5-18.7l405.5-875.6"/><path d="M27309.3 24305.7l-2.6.7c-88.4-51.3-182.6-85.8-246.1-53.5-152.9 78-830.5 1213.7-660.6 1292.5 41.3 19.2 92.2 38.1 145.5 55.6 3.8 1.3 7 4.2 8.6 7.9s1.5 7.9-.2 11.6l-390.5 843.2c-1.6 3.7-4.8 6.4-8.6 7.6-3.9 1.2-8 .7-11.5-1.3-233.3-137.5-504.1-368.8-475.4-692.4 49.6-559 764.4-2300.1 1512.7-2425 319.1-53.3 527 17.9 660.5 117.1 6.9 5.1 8.6 14.7 3.8 21.9l-535.6 814.1m499.5 1581.6c324.9-208.8 419.2-643 210.4-967.9-13-20.1-26.8-39.3-41.5-57.6-19.7-24.6-11.7-60.9 17-73.9l94-42.3c20.5-9.2 44.5-2.7 58 15.3 12.9 17 25.2 34.6 36.9 52.8 267.1 415.5 146.4 970.9-269.1 1238-31.5 20.3-63.8 38.1-96.7 53.9-24.7 11.8-54.2.9-64.9-24.3l-39.4-92.4c-10-23.4.2-50.4 23.1-61.4 24.6-11.8 48.7-25.1 72.2-40.2m273 424.8c559.1-359.5 721.5-1106.7 362.1-1665.8l-.3-.4c-15.7-24.5-6.5-57.1 20-69.1l92.2-41.5 60.5 17.9c407.3 648.3 216.8 1508.3-428.8 1923.3-56.3 36.2-114.4 67.6-173.6 94.7-24.1 11-52.5-.6-62.9-25l-39.3-92.2c-10-23.5.1-51 23.3-61.6 50.1-23.1 99.2-49.7 146.8-80.3m273.1 424.7c772.6-496.7 1011-1515.4 551.7-2301-14.4-24.6-4.9-56.3 21.1-68l91.5-41.2c22.2-10 48.7-1.8 60.9 19.3 505.1 874.2 238.6 2003.6-619.5 2555.3-80.6 51.8-163.8 96.4-248.7 134.5-24.2 10.9-52.6-.7-63-25.1l-39.3-92.2c-10.2-24 .9-51.4 24.7-62.1 75.3-33.9 149.1-73.5 220.6-119.5"/></g><g clip-path="url(#CG)"><path d="M10106.9 13861.8s-6992.52 3455-4705.71 5998.8 6550.11 1527 6766.11-1150.4c216-2677.3-4973.06-2049.2-2060.4-4848.4" fill="url(#CH)"/></g><path d="M9078.73 19169.9H5992.7c-18.58 0-33.61 15.1-33.61 33.6 0 18.6 15.03 33.7 33.61 33.7h3086.03c18.58 0 33.61-15.1 33.61-33.7 0-18.5-15.03-33.6-33.61-33.6m1831.97 0h-915.62c-18.58 0-33.62 15.1-33.62 33.6 0 18.6 15.04 33.7 33.62 33.7h915.62c18.6 0 33.6-15.1 33.6-33.7 0-18.5-15-33.6-33.6-33.6m-3863.18-624.7H5888.75c-18.58 0-33.61 15-33.61 33.6 0 18.5 15.03 33.6 33.61 33.6h1158.77c18.58 0 33.61-15.1 33.61-33.6 0-18.6-15.03-33.6-33.61-33.6m3759.28 0H8747.81c-18.58 0-33.61 15-33.61 33.6 0 18.5 15.03 33.6 33.61 33.6h2058.99c18.6 0 33.6-15.1 33.6-33.6 0-18.6-15-33.6-33.6-33.6m-1941.68-624.8H5784.79c-18.57 0-33.6 15-33.6 33.6s15.03 33.6 33.6 33.6h3080.33c18.58 0 33.61-15 33.61-33.6s-15.03-33.6-33.61-33.6m1837.68 0H9636.46c-18.58 0-33.61 15-33.61 33.6s15.03 33.6 33.61 33.6h1066.34c18.6 0 33.6-15 33.6-33.6s-15-33.6-33.6-33.6" fill="#fff"/><g clip-path="url(#CI)"><path d="M25904.3 20270.3c22.3 42.6 85.4 35.9 98.3-10.5 47.7-171.7 163.2-471.4 405.5-577.8 12.2-5.4 23.8-10.8 34.9-16.2 11 32.9 11.2 71.2-15.1 111.4-75.4 115.1 60.6 272.4 60.6 272.4s9-138.5 114.3-225.7c90.6-75.1 134.2-242.2 72.2-379.3-131.1-509.4-327.5-1183.1 437.4-1675.3s1842.2 928.9 1842.2 928.9l-534.7-1695s-825.2-608.9-1785.1 247.4-323.7 2102.4-323.7 2102.4-732.1 295.3-406.8 917.3" fill="url(#CJ)"/></g><g clip-path="url(#CK)"><path d="M29052.7 21058.2s-279.3 1173.9 811.7 786.5c0 0 514.1 66 577.6-543.8 0 0 352.2-298.8 138.6-806.3 0 0 968.1 401.3 1468.5-712.7 500.3-1114 137.2-1678.9-272-1802.3 0 0 352-236.2 220.4-699.9-131.6-463.6-924.2-737.7-1439.7-122.9 0 0-1353.1-120.5-1398.5 1071.7 0 0-666.6 555.8-59.1 1492.4 607.5 936.7-47.5 1337.3-47.5 1337.3" fill="url(#CL)"/></g><g clip-path="url(#CM)"><path d="M29026 18884.4c228.8 68.6 895 195.2 1528.7-389.6 107.5-99.2 151.4-249.9 113.1-391-170.2-626.6-619.3-2477.9-225.5-3279 0 0-694-764.9-1451-148.4 0 0-339.6 1480.3-784.5 2130.2-307.1 448.7 489.8 1684.8 691.4 1983.4 30.5 45.2 75.5 78.7 127.8 94.4" fill="url(#CN)"/></g><g clip-path="url(#CO)"><path d="M29657.7 20129.3s338.4-957.2 363.9-1379.5c0 0-374-170-726.4 117 0 0-37 956.1-90.4 1127.3l452.9 135.2" fill="url(#CP)"/></g><g clip-path="url(#CQ)"><path d="M29187.7 21434.4s-885.1-1238.7-356-1598.4c529.1-359.8 1159.1 520.4 1159.1 520.4s205.4 678-9.3 908c-214.8 230-793.8 170-793.8 170" fill="url(#CR)"/></g><g clip-path="url(#CS)"><path d="M29597.4 21730.4s-406.6-96.4-463.6-280.3c-57-184 576.6-354.6 754.1-363l143.1-742.3s422.8 698.3 255.3 1101.7c-167.5 403.3-688.9 283.9-688.9 283.9" fill="url(#CT)"/></g><g clip-path="url(#CU)"><path d="M29819.3 20447.6s344.5 398.9 481.5 138.8-310.1-455.3-464.9-327.6l-16.6 188.8" fill="url(#CV)"/></g><g clip-path="url(#CW)"><path d="M28107.6 11568.3c2.6-67.2-115.4-600.2-179.6-884.6-25.8-114.4-7.8-234.1 50.4-335.9l2223.9-3742.9c26.9-45.2 46.5-94.3 58.4-145.6 40.7-175.6 125.2-606.1 81.1-997.7l-115-238.9 497.5 112.9 108.3 1336.2-140.9 85.9c-121.7 74.2-216.4 185.1-270.7 316.9-201.1 488.5-700.4 1731.8-829.1 2337.8-146.3 688.7-911.1 1248-911.1 1248l134.4 317.7-707.6 590.2" fill="url(#CX)"/></g><g clip-path="url(#CY)"><path d="M31277.3 5795.4s-268.7 426-300.3 591.8-119.6 458.6-285.3 370.5c0 0-78-805.5-51.1-1120.2 26.9-314.8-355.8-304.6-355.8-304.6s-105.5-14.9-182.7-92.1c-53.4-53.3-15.2-145.8 60-150.7 125.3-8.1 324.2-10.2 533.1 30.2 73 14.1 127.1 76.2 131.5 150.4l55.1 927.1 339-428 56.5 25.6" fill="url(#CZ)"/></g><g clip-path="url(#Ca)"><path d="M29436.1 10972.1l89.1-3823.4c10.6-475.5-75.1-1529.3-551.8-1844.3l207.4-153.5s259.2 220.3 512.5 644.3c284.5 476.3 370.5 563.3 370.5 563.3l-94.4 193.4c-41.3 84.6-53.5 180.3-34.4 272.6l540.2 2513.9c110.7 421.6 118.5 984.5-266.4 1455.7-385 471.3-772.7 178-772.7 178" fill="url(#Cb)"/></g><g clip-path="url(#Cc)"><path d="M29876.3 5000c14.8-.2 27.4 10.4 29.4 25.1 15.9 111.6 81.9 559.1 136 674.9 61.9 132.7 264.1 691.2-.1 738.7 0 0-656.9-959.7-783-1089.1s-285.2-45.2-285.2-45.2-122.8-36.3-215.5-154.7c-44.1-56.3-3-139 68.5-139.7l442.5-4.2c128.5-1.3 244 76.8 291.8 196.1 77.9 194.5 211.7 479.8 367.6 606.4l-81.1-775.8c-1.8-17.3 11.7-32.4 29.1-32.5" fill="url(#Cd)"/></g><g clip-path="url(#Ce)"><path d="M28886.6 15037.4s99.7-317.8-53.4-841.2l-950.2-3317.9c-14.9-52.2 13.2-106.7 64.3-125 284.2-102.1 1218.4-390.3 2493.8-302.4 64.2 4.4 118.1 49.9 132 112.7l429.8 1934c225 1010.4 476.1 2100.1-628.8 2759-509.2-218.1-984.2-346.7-1487.5-219.2" fill="url(#Cf)"/></g><g clip-path="url(#Cg)"><path d="M30645.4 18369.8s1081-898.4 1349.3-2126.1c268.3-1227.6-1579.7-1358.1-1579.7-1358.1s-250.9 280.2-548.7 180.2c-297.8-99.9-23 489 325.4 487.4 348.5-1.5 187.1-277.1 680-53.8 480.2 217.5 777 890.3-448.2 1910-71 59.1-127.7 134.5-161.8 220.4-238 599.1-49.2 991.9 383.7 740" fill="url(#Ch)"/></g><path d="M25466.3 14861.3c2.6 95.3-124.5 130.8-171.3 47.8-452.3-802.9-1704.3-2871-3079.2-3794.9C19977 9609.9 18034.2 6753.8 18768 4849.6c0 0 6415.7-369.6 6698.3 10011.7" fill="#91b3fa"/><path d="M20777.1 6945.3c41.2 80.9 81 164.6 119.4 251.4l240.9 277.5c263.3 309.1 514.2 628.6 757.7 953.6 243.4 325.2 473.1 660.4 701.1 996.6 453.2 674.6 870 1373.2 1267.6 2082.4 198.1 355.1 388.9 714.3 573.4 1076.6l272.2 546 130.7 275.6 64 138.3 31.2 69.5 28.6 67.6 1.3 3.6c2.6 6.6 8.9 10.7 15.6 10.7 2 0 4-.4 5.9-1.1 8.3-3.2 12.6-12.4 9.9-20.8-9.1-27.8-18.7-49.8-28.1-74l-29.1-70.8-59.7-140.8-124.2-279.4-259.6-553.5c-177.6-366.9-365.2-728.9-558-1088.1-192.5-359.4-395-713.4-605-1063-210.3-349.4-425.6-695.9-652.2-1035.2-451.8-679.3-941.2-1334.5-1474.8-1952.6-140.3-159-282.9-316.2-428.8-470.1" fill="#c0d4fc"/><path d="M20922.8 13303.1c-18.2 68.5-116.2 67-132.1-2-153.3-667.2-610.2-2404.1-1395.5-3351.6-1278.6-1542.8-2061.9-3986.5-1138.6-5188.9 0 0 4648.9 1086.4 2666.2 8542.5" fill="#bdd0fb"/><path d="M18531.5 5522.2c-3.6 0-7.2 1.1-10.2 3.4-7.2 5.5-8.6 15.7-3.6 23 339.9 498.9 622.9 1033.3 864.4 1585.3 121.8 275.6 233.2 555.8 337.9 838.5 104.8 282.7 197.2 569.9 289.3 857 181.6 575.4 331 1160.6 466.9 1748.9 67.2 294.3 128.1 590.1 184.4 886.8l80.8 445.8 36.2 223.6 17 111.9 8 55.9 6.4 53.5.3 3.9c.8 8.6 8.1 15.1 16.6 15.1.5 0 1 0 1.5-.1 8.8-.8 15.3-8.3 15.1-16.9-.5-22.7-2.7-40.1-4.1-59.5l-5.6-56.6-12.3-113.1-28.8-225.4-66.6-449.4c-48.3-299.1-105.3-596.7-166.4-893.5-60.5-296.9-130.1-592-206.1-885.5-76.1-293.4-156.4-585.8-246.3-875.5-178.8-579.6-390.8-1149.5-641.9-1702.4-129-274.8-265.2-546.4-416.9-809.5-154-261.6-319-517.1-502.7-758.6-3.3-4.3-8.3-6.6-13.3-6.6" fill="#d9e4fd"/></g></svg>